<?xml version="1.0" encoding="utf-8"?>
<!-- Generator: Adobe Illustrator 22.0.0, SVG Export Plug-In . SVG Version: 6.00 Build 0)  -->
<svg version="1.1" id="Capa_1" xmlns="http://www.w3.org/2000/svg" xmlns:xlink="http://www.w3.org/1999/xlink" x="0px" y="0px"
	 viewBox="0 0 349.1 349.1" style="enable-background:new 0 0 349.1 349.1;" xml:space="preserve">
<style type="text/css">
	.st0{fill:#FFFFFF;}
</style>
<g>
	<path class="st0" d="M198.8,322.4v-58.2c0-7.9,6.4-14.3,14.3-14.3c28.2,0,43.5-28.9,45.6-86h-45.6c-7.9,0-14.3-6.4-14.3-14.3v-123
		c0-7.9,6.4-14.3,14.3-14.3h121.7c7.9,0,14.3,6.4,14.3,14.3v123c0,27.3-2.8,52.4-8.2,74.6c-5.6,22.7-14.1,42.6-25.4,59
		c-11.6,16.9-26.1,30.2-43.2,39.4c-17.2,9.3-37.1,14-59.3,14C205.2,336.7,198.8,330.3,198.8,322.4z M14.3,249.9
		c-7.9,0-14.3,6.4-14.3,14.3v58.3c0,7.9,6.4,14.3,14.3,14.3c22.2,0,42.1-4.7,59.3-14c17-9.2,31.6-22.5,43.2-39.4
		c11.3-16.5,19.8-36.3,25.4-59.1c5.4-22.2,8.2-47.3,8.2-74.6v-123c0-7.9-6.4-14.3-14.3-14.3H14.3C6.4,12.3,0,18.7,0,26.6v123
		c0,7.9,6.4,14.3,14.3,14.3h45C57.2,221,42.1,249.9,14.3,249.9z"/>
</g>
</svg>
