<?xml version="1.0" encoding="utf-8"?>
<!-- Generator: Adobe Illustrator 22.0.0, SVG Export Plug-In . SVG Version: 6.00 Build 0)  -->
<svg version="1.1" id="Capa_1" xmlns="http://www.w3.org/2000/svg" xmlns:xlink="http://www.w3.org/1999/xlink" x="0px" y="0px"
	 viewBox="0 0 128 128" style="enable-background:new 0 0 128 128;" xml:space="preserve">
<style type="text/css">
	.st0{fill:#068CBF;}
	.st1{fill:#FFFFFF;}
</style>
<path class="st0" d="M8.8,1.4l10,112.8l45.1,12.5l45.3-12.5L119.2,1.4H8.8z M98.3,27.1L95,64.7H81.1l0,0.6H95l-2.4,26.3l-0.2,2.3
	l-28.3,7.8V87.4l15.4-4.2l1.6-17.9H48.8l-0.3-3.1l-0.6-7l-0.3-3.7h34.8l1.3-14.2H64V23.4h34.6L98.3,27.1z M30.4,34.2l-0.6-7
	l-0.3-3.7H64v13.8H30.6L30.4,34.2z M35.7,93.9l-1.9-21.7h13.9l1,11L64,87.4v14.4L35.7,93.9z"/>
<polygon class="st0" points="109.2,10.6 100.6,106.9 64,117.1 64,65.3 81.1,65.3 79.5,83.2 64.1,87.4 64.1,101.7 92.4,93.9 
	92.6,91.6 95,65.3 81.1,65.3 81.1,64.7 95,64.7 98.3,27.1 98.7,23.4 64,23.4 64,37.3 83.6,37.3 82.3,51.4 64,51.4 64,10.6 "/>
<polygon class="st1" points="98.7,23.4 98.3,27.1 95,64.7 81.1,64.7 81.1,65.3 64,65.3 64,51.4 82.3,51.4 83.6,37.3 64,37.3 
	64,23.4 "/>
<rect x="64" y="23.4" class="st1" width="0" height="13.8"/>
<polygon class="st1" points="95,64.7 95,65.3 81.1,65.3 81.1,64.7 "/>
<polygon class="st1" points="64,87.4 64,101.8 35.7,93.9 33.8,72.2 47.6,72.2 48.6,83.2 "/>
<polygon class="st1" points="64.1,87.4 64.1,101.7 64,101.8 64,101.8 64,87.4 64,87.4 64,87.4 "/>
<polygon class="st1" points="95,65.3 92.6,91.6 92.4,93.9 64.1,101.7 64.1,87.4 79.5,83.2 81.1,65.3 "/>
<polygon class="st1" points="64.1,87.4 64.1,101.7 64,101.8 64,87.4 "/>
<polygon class="st1" points="95,64.7 95,65.3 81.1,65.3 81.1,64.7 "/>
<path class="st1" d="M64,23.4v13.8h0L64,23.4L64,23.4z"/>
<polygon class="st1" points="64,51.4 64,65.3 48.8,65.3 48.5,62.2 47.9,55.1 47.5,51.4 "/>
<polygon class="st1" points="64,23.4 64,37.3 30.6,37.3 30.4,34.2 29.7,27.1 29.4,23.4 "/>
</svg>
