<?xml version="1.0" encoding="utf-8"?>
<!-- Generator: Adobe Illustrator 22.0.0, SVG Export Plug-In . SVG Version: 6.00 Build 0)  -->
<svg version="1.1" id="Bold" xmlns="http://www.w3.org/2000/svg" xmlns:xlink="http://www.w3.org/1999/xlink" x="0px" y="0px"
	 viewBox="0 0 512 512" style="enable-background:new 0 0 512 512;" xml:space="preserve">
<style type="text/css">
	.st0{fill:#68CBFF;}
</style>
<path class="st0" d="M262.2,458.6c79.6,0,190.7,1.9,231.1-79c15.3-30.9,18.7-66.6,18.7-100.3h0c0-44.2-12.3-86.3-41.6-120.6
	c5.4-16.3,8.2-33.6,8.2-50.9c0-22.7-5.1-34.1-15.6-54.7c-47.8,0-78.7,9-115,37.2c-27.9-6.6-57-9.7-85.8-9.7
	c-31.9,0-63.7,3.3-94.6,10.6c-36.8-28.5-67.7-38-116.1-38c-10.3,20.6-15.6,32-15.6,54.7c0,17.3,2.7,34.8,8.2,51.5
	C14.8,193.4,0,235.2,0,279.4c0,33.7,6,69.7,21.5,100.3C63.6,461.5,181.3,458.6,262.2,458.6L262.2,458.6z M149.4,245.5
	c20.3,0,39.8,3.6,59.7,6.3c72.9,11.1,111.3-6.3,155.9-6.3c49.9,0,78.4,40.9,78.4,87.2c0,92.8-85.7,106.9-160.6,106.9h-51.4
	C156.7,439.6,71,425.4,71,332.7C71,286.4,99.4,245.5,149.4,245.5L149.4,245.5z"/>
<path class="st0" d="M355.3,390.9c27.5,0,39.1-36.1,39.1-58.2s-11.6-58.2-39.1-58.2s-39.1,36.1-39.1,58.2
	C316.2,354.8,327.8,390.9,355.3,390.9L355.3,390.9z"/>
<path class="st0" d="M159.4,390.9c27.5,0,39.1-36.1,39.1-58.2s-11.6-58.2-39.1-58.2s-39.1,36.1-39.1,58.2
	C120.2,354.8,131.8,390.9,159.4,390.9L159.4,390.9z"/>
</svg>
