<?xml version="1.0" encoding="utf-8"?>
<!-- Generator: Adobe Illustrator 22.0.0, SVG Export Plug-In . SVG Version: 6.00 Build 0)  -->
<svg version="1.1" id="Capa_1" xmlns="http://www.w3.org/2000/svg" xmlns:xlink="http://www.w3.org/1999/xlink" x="0px" y="0px"
	 viewBox="0 0 512 512" style="enable-background:new 0 0 512 512;" xml:space="preserve">
<style type="text/css">
	.st0{fill:#68CBFF;}
</style>
<g>
	<g>
		<path class="st0" d="M504.9,111.9L265,298c-2.7,2-5.8,3-9,3s-6.3-1-9-3L7.1,111.9C2.7,118.9,0,127.1,0,136v240
			c0,24.8,20.2,45,45,45h422c24.8,0,45-20.2,45-45V136C512,127.1,509.3,118.9,504.9,111.9z"/>
	</g>
</g>
<g>
	<g>
		<path class="st0" d="M467,91H45c-4.6,0-9,0.9-13.2,2.2L256,267.3L480.2,93.2C476,91.9,471.6,91,467,91z"/>
	</g>
</g>
</svg>
