<?xml version="1.0" encoding="utf-8"?>
<!-- Generator: Adobe Illustrator 22.0.0, SVG Export Plug-In . SVG Version: 6.00 Build 0)  -->
<svg version="1.1" id="Capa_1" xmlns="http://www.w3.org/2000/svg" xmlns:xlink="http://www.w3.org/1999/xlink" x="0px" y="0px"
	 viewBox="0 0 30.3 30.3" style="enable-background:new 0 0 30.3 30.3;" xml:space="preserve">
<style type="text/css">
	.st0{fill:none;stroke:#5C15CC;stroke-miterlimit:10;}
</style>
<g>
	<path class="st0" d="M25.3,8.6c-1.1-1.8-2.5-3.2-4.3-4.3c-1.8-1.1-3.8-1.6-5.9-1.6C13,2.7,11,3.3,9.2,4.3C7.4,5.4,6,6.8,4.9,8.6
		c-1.1,1.8-1.6,3.8-1.6,5.9c0,2.1,0.5,4.1,1.6,5.9c1.1,1.8,2.5,3.2,4.3,4.3c1.8,1.1,3.8,1.6,5.9,1.6s4.1-0.5,5.9-1.6
		c1.8-1.1,3.2-2.5,4.3-4.3c1.1-1.8,1.6-3.8,1.6-5.9C26.9,12.4,26.4,10.4,25.3,8.6z M20.7,17.3c0.2,0.2,0.3,0.4,0.3,0.7
		c0,0.3-0.1,0.5-0.3,0.7l-1.4,1.4c-0.2,0.2-0.4,0.3-0.7,0.3c-0.3,0-0.5-0.1-0.7-0.3l-2.8-2.8l-2.8,2.8c-0.2,0.2-0.4,0.3-0.7,0.3
		c-0.3,0-0.5-0.1-0.7-0.3l-1.4-1.4c-0.2-0.2-0.3-0.4-0.3-0.7c0-0.3,0.1-0.5,0.3-0.7l2.8-2.8l-2.8-2.8c-0.2-0.2-0.3-0.4-0.3-0.7
		c0-0.3,0.1-0.5,0.3-0.7L11,9c0.2-0.2,0.4-0.3,0.7-0.3c0.3,0,0.5,0.1,0.7,0.3l2.8,2.8L17.9,9c0.2-0.2,0.4-0.3,0.7-0.3
		c0.3,0,0.5,0.1,0.7,0.3l1.4,1.4c0.2,0.2,0.3,0.4,0.3,0.7c0,0.3-0.1,0.5-0.3,0.7l-2.8,2.8L20.7,17.3z"/>
</g>
</svg>
