<?xml version="1.0" encoding="utf-8"?>
<!-- Generator: Adobe Illustrator 22.0.0, SVG Export Plug-In . SVG Version: 6.00 Build 0)  -->
<svg version="1.1" id="a335945a-1107-4320-8aa0-2afe397d1c78"
	 xmlns="http://www.w3.org/2000/svg" xmlns:xlink="http://www.w3.org/1999/xlink" x="0px" y="0px" viewBox="0 0 802.2 825.6"
	 style="enable-background:new 0 0 802.2 825.6;" xml:space="preserve">
<style type="text/css">
	.st0{opacity:0.5;}
	.st1{fill:url(#SVGID_1_);}
	.st2{fill:url(#SVGID_2_);}
	.st3{fill:#FFFFFF;}
	.st4{opacity:0.2;fill:#68CBFF;enable-background:new    ;}
	.st5{fill:#DBDBDB;}
	.st6{fill:none;stroke:#6C63FF;stroke-width:2;stroke-miterlimit:10;stroke-dasharray:12;}
	.st7{fill:url(#SVGID_3_);}
	.st8{fill:url(#SVGID_4_);}
	.st9{fill:#F5F5F5;}
	.st10{fill:#8025FE;}
	.st11{fill:#333333;}
	.st12{fill:#4D8AF0;}
	.st13{opacity:0.1;enable-background:new    ;}
	.st14{fill:#FDB797;}
	.st15{fill:#1E91C4;}
	.st16{fill:url(#SVGID_5_);}
	.st17{fill:#FDA57D;}
	.st18{fill:url(#SVGID_6_);}
	.st19{fill:url(#SVGID_7_);}
	.st20{fill:#BE7C5E;}
	.st21{fill:url(#SVGID_8_);}
</style>
<title>Playful cat</title>
<g>
	<g>
		<g class="st0">
			
				<linearGradient id="SVGID_1_" gradientUnits="userSpaceOnUse" x1="815.4672" y1="681.0099" x2="244.2864" y2="680.2502" gradientTransform="matrix(0 1 -1.02 0 1095.3436 -105.8749)">
				<stop  offset="0" style="stop-color:#808080;stop-opacity:0.25"/>
				<stop  offset="0.54" style="stop-color:#808080;stop-opacity:0.12"/>
				<stop  offset="1" style="stop-color:#808080;stop-opacity:0.1"/>
			</linearGradient>
			<path class="st1" d="M0.6,690.3L0,160.1c0-11,8.3-20,18.4-20l764.8-1.1c10.1,0,18.4,9,18.4,20l0.6,530.2c0,11-8.3,20-18.4,20
				L19,710.3C8.9,710.3,0.6,701.4,0.6,690.3z"/>
		</g>
		
			<linearGradient id="SVGID_2_" gradientUnits="userSpaceOnUse" x1="530.7672" y1="1019.7628" x2="530.7672" y2="349.6756" gradientTransform="matrix(1.396263e-03 1 -1.02 1.424188e-03 1095.4082 -106.0666)">
			<stop  offset="0" style="stop-color:#000000;stop-opacity:9.000000e-02"/>
			<stop  offset="0.55" style="stop-color:#000000;stop-opacity:7.000000e-02"/>
			<stop  offset="1" style="stop-color:#000000;stop-opacity:2.000000e-02"/>
		</linearGradient>
		<polygon class="st2" points="59.3,180 739.6,178.9 740.3,671.3 59.9,672.4 		"/>
		<path class="st3" d="M27.1,157.4l750.5-1.1c6.4,0,11.7,5.7,11.7,12.7l0.6,510.1c0,7-5.2,12.7-11.7,12.7l-750.5,1.1
			c-6.4,0-11.7-5.7-11.7-12.7l-0.6-510.1C15.5,163.1,20.6,157.5,27.1,157.4z"/>
		<rect x="80.7" y="193.7" class="st4" width="649" height="462.4"/>
		<ellipse class="st5" cx="48.6" cy="427.7" rx="17.9" ry="19.1"/>
		<ellipse class="st5" cx="758" cy="346.4" rx="6" ry="6.4"/>
		<path class="st5" d="M762.1,377.6l0.1,81.1c0,0.4-0.3,0.8-0.7,0.8h-4.6c-0.4,0-0.7-0.3-0.7-0.8l-0.1-81.1c0-0.4,0.3-0.8,0.7-0.8
			h4.6C761.8,376.8,762.1,377.1,762.1,377.6z"/>
		<polyline class="st6" points="616.8,261.7 616.8,644.6 522.6,644.6 		"/>
		<polyline class="st6" points="128.4,401.8 128.4,644.6 265.5,644.6 		"/>
		<g class="st0">
			
				<linearGradient id="SVGID_3_" gradientUnits="userSpaceOnUse" x1="22.544" y1="539.3358" x2="22.544" y2="466.3358" gradientTransform="matrix(1 0 0 1 103.4622 -101.8129)">
				<stop  offset="0" style="stop-color:#808080;stop-opacity:0.25"/>
				<stop  offset="0.54" style="stop-color:#808080;stop-opacity:0.12"/>
				<stop  offset="1" style="stop-color:#808080;stop-opacity:0.1"/>
			</linearGradient>
			<ellipse class="st7" cx="126" cy="401" rx="33.5" ry="36.5"/>
		</g>
	</g>
	<title>connected</title>
	<g>
		<g class="st0">
			
				<linearGradient id="SVGID_4_" gradientUnits="userSpaceOnUse" x1="173.5492" y1="592.5725" x2="173.5492" y2="364.5849" gradientTransform="matrix(1 0 0 1 -59.4778 -185.0029)">
				<stop  offset="0" style="stop-color:#808080;stop-opacity:0.25"/>
				<stop  offset="0.54" style="stop-color:#808080;stop-opacity:0.12"/>
				<stop  offset="1" style="stop-color:#808080;stop-opacity:0.1"/>
			</linearGradient>
			<path class="st8" d="M227.7,293.3c0-62.7-50.9-113.7-113.7-113.7S0.4,230.5,0.4,293.3c0,37.8,18.8,73.3,50.3,94.3l0.1,0.5
				c3.8,3.5,8.1,6.3,12.9,8.2l0.1-0.5c5.4,4.6,27.7,11.8,53.5,11.8h0.5c16.3,0,34.1-2.9,49.6-11.3c0,0,0.1-0.3,0.3-0.9
				c4-1.8,7.6-4.3,10.7-7.3c0.1-0.4,0.1-0.9,0.2-1.3C209.5,365.7,227.9,330.6,227.7,293.3z"/>
		</g>
		<circle class="st9" cx="114.1" cy="293.3" r="110.2"/>
		<path class="st10" d="M66.4,336.4c0,0-26.3,2.1-19.3,50.1c3.7,3.4,7.8,6.1,12.5,8l14.8-50.1L66.4,336.4z"/>
		<path class="st10" d="M151.7,336.4c0,0,26.3,2.1,19.3,50.1c-3.7,3.4-7.8,6.1-12.5,8l-14.8-50.1L151.7,336.4z"/>
		<circle class="st11" cx="109.7" cy="254.6" r="48.9"/>
		<path class="st12" d="M151.1,336.4H65.8l-8,34.1c0,0-4.7,15.8,1.2,22.8c5.9,7,60.2,22.8,100,1.2c3.4-9.1,3.9-19,1.2-28.4
			c-4.5-15.9-1.2-1.2-1.2-1.2L151.1,336.4z"/>
		<path class="st12" d="M152.3,336.4H67l-8,34.1c0,0-4.7,15.8,1.2,22.8c5.9,7,60.2,22.8,100,1.2c3.4-9.1,3.9-19,1.2-28.4
			c-4.5-15.9-1.2-1.2-1.2-1.2L152.3,336.4z"/>
		<path class="st10" d="M151.7,336.4H66.4l-8.1,34.1c0,0-4.7,15.8,1.2,22.8c5.9,7,60.2,22.8,100,1.2c3.4-9.1,3.9-19,1.2-28.4
			c-4.5-15.9-1.2-1.2-1.2-1.2L151.7,336.4z"/>
		<path class="st13" d="M92.5,308.1h34.2l0,0V336c0,9-7.4,16.4-16.4,16.4H109c-9,0-16.4-7.4-16.4-16.4v-27.9H92.5z"/>
		<path class="st14" d="M92.5,306.9h34.2l0,0v27.9c0,9-7.4,16.4-16.4,16.4H109c-9,0-16.4-7.4-16.4-16.4v-27.9H92.5z"/>
		<path class="st13" d="M92.6,311.7c11,4.1,23.1,4.2,34.2,0.1v-4.2H92.6V311.7z"/>
		<circle class="st14" cx="109.7" cy="265.2" r="48.9"/>
		<path class="st13" d="M62.9,247.8h93.3c0,0-8-37.6-43.2-35.2S62.9,247.8,62.9,247.8z"/>
		<path class="st11" d="M62.9,246.6h93.3c0,0-8-37.6-43.2-35.2S62.9,246.6,62.9,246.6z"/>
		<ellipse class="st14" cx="61.9" cy="263.1" rx="4.5" ry="8.5"/>
		<ellipse class="st14" cx="157.4" cy="263.1" rx="4.5" ry="8.5"/>
		<path class="st11" d="M70.2,221.7c1-3.8,3.2-7,6.3-9.3c2.4-1.6,5.3-2.5,8-3.4c4.1-1.4,8-3.3,11.6-5.5c4.2-2.6,8.1-5.6,12.6-7.3
			c7.8-2.9,16.7-1.3,24.7,0.8c2,0.4,4,1.2,5.8,2.1c1.9,1.4,3.7,3,5.2,4.9l12.9,15.5c1.3,1.4,2.4,2.9,3.2,4.5c0.8,1.6,1.3,3.3,1.5,5
			c0.4,2.9,0,5.8-1.4,8.4c-2.1,3.8-6.7,5.6-11,5.8c-4.3,0.2-8.5-1.1-12.7-2.3c-13.3-3.9-26.9-7.5-40.6-9.1
			c-6.9-0.9-13.8-1.1-20.6-0.6c-2.1,0.1-5,1.2-6.3-1.1C68,228,69.6,223.5,70.2,221.7z"/>
		
			<ellipse transform="matrix(7.088901e-02 -0.9975 0.9975 7.088901e-02 -327.3986 507.0532)" class="st15" cx="108.5" cy="429.3" rx="37" ry="37"/>
	</g>
	<polygon class="st3" points="92.3,424 105.2,435.8 123.5,408.9 129.9,414.3 105.2,446.5 87,426.1 	"/>
	<g>
		<g class="st0">
			
				<linearGradient id="SVGID_5_" gradientUnits="userSpaceOnUse" x1="745.3447" y1="414.3134" x2="745.3447" y2="186.3258" gradientTransform="matrix(1 0 0 1 -59.4778 -185.0029)">
				<stop  offset="0" style="stop-color:#808080;stop-opacity:0.25"/>
				<stop  offset="0.54" style="stop-color:#808080;stop-opacity:0.12"/>
				<stop  offset="1" style="stop-color:#808080;stop-opacity:0.1"/>
			</linearGradient>
			<path class="st16" d="M799.5,115c0-62.7-50.9-113.7-113.7-113.7S572.2,52.2,572.2,115c0,37.8,18.8,73.3,50.3,94.3l0.1,0.5
				c3.8,3.5,8.1,6.3,12.9,8.2l0.1-0.5c5.4,4.6,27.7,11.8,53.5,11.8h0.5c16.3,0,34.1-2.9,49.6-11.3c0,0,0.1-0.3,0.3-0.9
				c4-1.8,7.6-4.3,10.7-7.3c0.1-0.4,0.1-0.9,0.2-1.3C781.3,187.4,799.6,152.4,799.5,115z"/>
		</g>
		<circle class="st9" cx="685.9" cy="115" r="110.2"/>
		<path class="st17" d="M643.8,160.3c0,0-26.3,2.1-19.3,50.1c3.7,3.4,7.8,6.1,12.5,8l14.8-50.1L643.8,160.3z"/>
		<path class="st17" d="M729,160.3c0,0,26.3,2.1,19.3,50.1c-3.7,3.4-7.8,6.1-12.5,8L721,168.3L729,160.3z"/>
		<path class="st11" d="M644.8,81.9c0,0-12.5,36.4-19.3,33c0,0,65.9,56.8,123.9,0c0,0-10.2-18.2-25-33H644.8z"/>
		<circle class="st11" cx="687" cy="78.5" r="48.9"/>
		<path class="st13" d="M728.5,160.3h-85.2l-8.1,34.2c0,0-4.6,15.8,1.2,22.8c5.8,7,60.2,22.8,100,1.2c3.4-9.1,3.9-19.1,1.2-28.5
			c-4.5-15.9-1.2-1.2-1.2-1.2L728.5,160.3z"/>
		<path class="st13" d="M729.6,160.3h-85.3l-8,34.2c0,0-4.6,15.8,1.2,22.8c5.8,7,60.2,22.8,100,1.2c3.4-9.1,3.9-19.1,1.2-28.5
			c-4.5-15.9-1.2-1.2-1.2-1.2L729.6,160.3z"/>
		<path class="st10" d="M729,160.3h-85.3l-8,34.2c0,0-4.6,15.8,1.2,22.8c5.8,7,60.2,22.8,100,1.2c3.4-9.1,3.9-19.1,1.2-28.5
			c-4.5-15.9-1.2-1.2-1.2-1.2L729,160.3z"/>
		<path class="st13" d="M669.9,132.1H704l0,0V160c0,9-7.4,16.4-16.4,16.4h-1.3c-9,0-16.4-7.4-16.4-16.4V132.1L669.9,132.1z"/>
		<path class="st17" d="M669.9,130.8H704l0,0v27.9c0,9-7.4,16.4-16.4,16.4h-1.3c-9,0-16.4-7.4-16.4-16.4V130.8z"/>
		<path class="st13" d="M670,135.7c11,4.1,23.1,4.2,34.2,0.1v-4.2H670V135.7z"/>
		<circle class="st17" cx="687" cy="89.1" r="48.9"/>
		<path class="st11" d="M640.3,70.5h93.3c0,0-8-37.6-43.2-35.2C655.1,37.6,640.3,70.5,640.3,70.5z"/>
		<ellipse class="st17" cx="639.2" cy="87.1" rx="4.5" ry="8.5"/>
		<ellipse class="st17" cx="734.6" cy="87.1" rx="4.5" ry="8.5"/>
		<path class="st13" d="M640.3,71.8h93.3c0,0-8-37.6-43.2-35.2C655.1,38.9,640.3,71.8,640.3,71.8z"/>
		<g class="st0">
			
				<linearGradient id="SVGID_6_" gradientUnits="userSpaceOnUse" x1="585.7351" y1="381.9425" x2="585.7351" y2="303.5114" gradientTransform="matrix(1 0 0 1 103.4622 -101.8129)">
				<stop  offset="0" style="stop-color:#808080;stop-opacity:0.25"/>
				<stop  offset="0.54" style="stop-color:#808080;stop-opacity:0.12"/>
				<stop  offset="1" style="stop-color:#808080;stop-opacity:0.1"/>
			</linearGradient>
			<circle class="st18" cx="689.2" cy="240.9" r="39.2"/>
		</g>
		<circle class="st15" cx="689.2" cy="240.9" r="37"/>
		<polygon class="st3" points="673.2,236 687,248.6 706.7,219.9 713.6,225.7 687,260.3 667.4,238.3 		"/>
	</g>
	<g>
		<g class="st0">
			
				<linearGradient id="SVGID_7_" gradientUnits="userSpaceOnUse" x1="-538.4883" y1="948.6943" x2="-538.4883" y2="720.7068" gradientTransform="matrix(-1 0 0 1 -123.4778 -185.0029)">
				<stop  offset="0" style="stop-color:#808080;stop-opacity:0.25"/>
				<stop  offset="0.54" style="stop-color:#808080;stop-opacity:0.12"/>
				<stop  offset="1" style="stop-color:#808080;stop-opacity:0.1"/>
			</linearGradient>
			<path class="st19" d="M301.3,649.4c0-62.7,50.9-113.7,113.7-113.7s113.7,50.9,113.7,113.7c0,37.8-18.8,73.3-50.3,94.3l-0.1,0.5
				c-3.8,3.5-8.1,6.3-12.9,8.2l-0.1-0.5c-5.4,4.6-27.7,11.8-53.5,11.8h-0.5c-16.3,0-34.1-2.9-49.6-11.3c0,0-0.1-0.3-0.3-0.9
				c-4-1.8-7.6-4.3-10.7-7.3c-0.1-0.4-0.1-0.9-0.2-1.3C319.6,721.7,301.3,686.8,301.3,649.4z"/>
		</g>
		<circle class="st9" cx="415" cy="649.4" r="110.2"/>
		<path class="st20" d="M371.8,691.4c0,0-26.3,2.1-19.3,50.1c3.7,3.4,7.8,6.1,12.5,8l14.8-50.1L371.8,691.4z"/>
		<path class="st20" d="M457,691.4c0,0,26.3,2.1,19.3,50.1c-3.7,3.4-7.8,6.1-12.6,8L449,699.3L457,691.4z"/>
		<path class="st11" d="M372.9,613c0,0-2,5.9-4.8,12.7c-6.2,14.9,0.9,72.1,15.9,78.2c16.8,6.9,38.9,11.3,61.8,2.9
			c20-7.3,26.1-72.4,12-88.3c-1.6-1.8-3.4-3.8-5.2-5.5H372.9z"/>
		<circle class="st11" cx="415.1" cy="609.5" r="48.9"/>
		<path class="st13" d="M456.6,691.4h-85.3l-8,34.2c0,0-4.6,15.8,1.2,22.8c5.8,7,60.2,22.8,100,1.2c3.4-9.1,3.9-19.1,1.2-28.5
			c-4.5-15.9-1.2-1.2-1.2-1.2L456.6,691.4z"/>
		<path class="st13" d="M457.7,691.4h-85.2l-8,34.2c0,0-4.6,15.8,1.2,22.8s60.2,22.8,100,1.2c3.4-9.1,3.9-19.1,1.2-28.5
			c-4.5-15.9-1.2-1.2-1.2-1.2L457.7,691.4z"/>
		<path class="st10" d="M457,691.4h-85.3l-8,34.2c0,0-4.6,15.8,1.2,22.8c5.8,7,60.2,22.8,100,1.2c3.4-9.1,3.9-19.1,1.2-28.5
			c-4.5-15.9-1.2-1.2-1.2-1.2L457,691.4z"/>
		<path class="st13" d="M397.9,663h34.2l0,0V691c0,9-7.4,16.4-16.4,16.4h-1.3c-9,0-16.4-7.4-16.4-16.4V663L397.9,663z"/>
		<path class="st20" d="M397.9,661.8h34.2l0,0v27.9c0,9-7.4,16.4-16.4,16.4h-1.3c-9,0-16.4-7.4-16.4-16.4V661.8L397.9,661.8z"/>
		<path class="st13" d="M398,666.7c11,4.1,23.1,4.2,34.2,0.1v-4.2H398V666.7z"/>
		<circle class="st20" cx="415.1" cy="620.2" r="48.9"/>
		<path class="st11" d="M368.4,601.6h93.3c0,0-8-37.6-43.2-35.2C383.2,568.7,368.4,601.6,368.4,601.6z"/>
		<ellipse class="st20" cx="367.2" cy="618" rx="4.5" ry="8.5"/>
		<ellipse class="st20" cx="462.7" cy="618" rx="4.5" ry="8.5"/>
		<path class="st13" d="M368.4,602.9h93.3c0,0-8-37.6-43.2-35.2S368.4,602.9,368.4,602.9z"/>
		<g class="st0">
			
				<linearGradient id="SVGID_8_" gradientUnits="userSpaceOnUse" x1="314.879" y1="926.3154" x2="314.879" y2="847.8842" gradientTransform="matrix(1 0 0 1 103.4622 -101.8129)">
				<stop  offset="0" style="stop-color:#808080;stop-opacity:0.25"/>
				<stop  offset="0.54" style="stop-color:#808080;stop-opacity:0.12"/>
				<stop  offset="1" style="stop-color:#808080;stop-opacity:0.1"/>
			</linearGradient>
			<circle class="st21" cx="418.3" cy="785.3" r="39.2"/>
		</g>
		<circle class="st15" cx="418.3" cy="785.3" r="37"/>
		<polygon class="st3" points="402.3,780.3 416.2,793 435.9,764.2 442.7,770 416.2,804.6 396.6,782.7 		"/>
	</g>
</g>
</svg>
