<?xml version="1.0" encoding="utf-8"?>
<!-- Generator: Adobe Illustrator 22.0.0, SVG Export Plug-In . SVG Version: 6.00 Build 0)  -->
<svg version="1.1" id="a335945a-1107-4320-8aa0-2afe397d1c78"
	 xmlns="http://www.w3.org/2000/svg" xmlns:xlink="http://www.w3.org/1999/xlink" x="0px" y="0px" viewBox="0 0 802.2 825.6"
	 style="enable-background:new 0 0 802.2 825.6;" xml:space="preserve">
<style type="text/css">
	.st0{fill:#E6E6E6;}
	.st1{fill:#FFFFFF;}
	.st2{fill:#3F3D56;}
	.st3{fill:#1E91C4;}
	.st4{fill:#8025FE;}
	.st5{fill:#68CBFF;}
</style>
<title>Playful cat</title>
<g>
	<g>
		<path class="st0" d="M802.1,553.8c0,7.5-5.4,13.6-12.1,13.6H258.2c-6.7,0-12.1-6.1-12.1-13.6l0,0v-405c0-7.5,5.4-13.6,12.1-13.6
			l0,0h531.9c6.7,0,12.1,6.1,12.1,13.6l0,0l0,0L802.1,553.8L802.1,553.8z"/>
		<path class="st1" d="M795.9,547.2c0,7.2-5.3,13.2-11.8,13.2l0,0H264.5c-6.5,0-11.8-5.9-11.8-13.2V155.6c0-7.2,5.3-13.2,11.8-13.2
			l0,0h519.5c6.5,0,11.8,5.9,11.8,13.2V547.2z"/>
		<path id="b9c54412-061c-4155-b289-fb4c23e4a64e_1_" class="st0" d="M280.4,159.5h488.2c3.9,0,7,3.5,7,7.9v366.8
			c0,4.3-3.2,7.9-7,7.9H280.4c-3.9,0-7.1-3.5-7.1-7.9l0,0V167.3C273.5,163,276.6,159.5,280.4,159.5L280.4,159.5z"/>
		<path class="st1" d="M286.6,168.3H762c3.9,0,7,3.5,7,7.9v347.1c0,4.3-3.2,7.9-7,7.9H286.6c-3.9,0-7.1-3.5-7.1-7.9l0,0V176.1
			C279.7,171.8,282.7,168.3,286.6,168.3L286.6,168.3z"/>
		<path class="st2" d="M622.2,409.4c-1.9,0-3.7-0.4-5.5-1.3c-0.4-0.2-0.8-0.4-1.1-0.7l-34.5-27l0,0c-3.6-2.8-5.7-7.3-5.7-12.2v-37
			c0-4.9,2.1-9.4,5.7-12.2l34.5-27.1c0.3-0.3,0.7-0.5,1.1-0.7c6.7-3.4,14.7,0,17.7,7.6c0.8,1.9,1.2,4,1.2,6.1v89.7
			C635.6,402.8,629.7,409.4,622.2,409.4L622.2,409.4L622.2,409.4z"/>
		<path class="st2" d="M545,416.8h-96.4c-19.6,0-35.6-14.2-35.6-31.6v-70.7c0-17.5,15.9-31.6,35.6-31.6h96.6
			c19.5,0,35.3,14,35.3,31.4v71C580.5,402.5,564.6,416.7,545,416.8z"/>
		<path class="st0" d="M679.3,602.4c0,7.5-5.4,13.6-12.1,13.6H135.4c-6.7,0-12.1-6.1-12.1-13.6l0,0v-405c0-7.5,5.4-13.6,12.1-13.6
			h531.9c6.7,0,12.1,6.1,12.1,13.6l0,0l0,0L679.3,602.4L679.3,602.4z"/>
		<path class="st1" d="M673.1,595.8c0,7.2-5.3,13.2-11.8,13.2H141.7c-6.5,0-11.8-5.9-11.8-13.2V204.2c0-7.2,5.3-13.2,11.8-13.2l0,0
			h519.5c6.5,0,11.8,5.9,11.8,13.2V595.8z"/>
		<path id="a7242049-80b4-49e1-bd08-67354734c824_1_" class="st0" d="M157.7,208.1h488.2c3.9,0,7,3.5,7,7.8v366.8
			c0,4.3-3.2,7.8-7,7.8H157.7c-3.9,0-7.1-3.5-7.1-7.8l0,0V215.9C150.7,211.5,153.8,208.1,157.7,208.1L157.7,208.1L157.7,208.1z"/>
		<path class="st1" d="M163.8,216.8h475.3c3.9,0,7,3.5,7,7.8v347.1c0,4.3-3.2,7.9-7,7.9H163.8c-3.9,0-7.1-3.5-7.1-7.9l0,0V224.7
			C156.9,220.4,160,216.8,163.8,216.8L163.8,216.8z"/>
		<path class="st2" d="M499.4,458c-1.9,0-3.7-0.4-5.5-1.3c-0.4-0.2-0.8-0.4-1.1-0.7l-34.5-27l0,0c-3.6-2.8-5.7-7.3-5.7-12.2v-37
			c0-4.9,2.1-9.4,5.7-12.2l34.5-27.1c0.3-0.3,0.7-0.5,1.1-0.7c6.7-3.4,14.7,0,17.7,7.6c0.8,1.9,1.2,4,1.2,6.1v89.7
			C512.8,451.4,506.9,458,499.4,458L499.4,458L499.4,458z"/>
		<path class="st2" d="M422.2,465.3h-96.4c-19.6,0-35.6-14.2-35.6-31.6V363c0-17.5,15.9-31.6,35.6-31.6h96.6
			c19.5,0,35.3,14,35.3,31.4v71C457.7,451.1,441.8,465.2,422.2,465.3z"/>
		<path class="st0" d="M558.9,658c0,7.5-5.4,13.6-12.1,13.6H15c-6.7,0-12.1-6.1-12.1-13.6l0,0V253c0-7.5,5.4-13.6,12.1-13.6l0,0
			h531.9c6.7,0,12.1,6.1,12.1,13.6l0,0l0,0L558.9,658L558.9,658z"/>
		<path class="st1" d="M552.7,651.4c0,7.2-5.3,13.2-11.8,13.2H21.3c-6.5,0-11.8-5.9-11.8-13.2V259.8c0-7.2,5.3-13.2,11.8-13.2l0,0
			h519.5c6.5,0,11.8,5.9,11.8,13.2V651.4z"/>
		<path id="b7a050eb-0cb2-44a8-b642-35d340850eff_1_" class="st0" d="M37.2,263.7h488.2c3.9,0,7,3.5,7,7.9v366.8
			c0,4.3-3.2,7.8-7,7.8H37.2c-3.9,0-7-3.5-7-7.8V271.5C30.3,267.2,33.4,263.7,37.2,263.7L37.2,263.7L37.2,263.7z"/>
		<path class="st1" d="M43.4,272.5h475.3c3.9,0,7,3.5,7,7.9v347.1c0,4.3-3.2,7.8-7,7.8H43.4c-3.9,0-7-3.5-7-7.8V280.3
			C36.4,276,39.5,272.5,43.4,272.5z"/>
	</g>
	<path class="st3" d="M391.9,515.2c-2.1,0-4.1-0.4-6.1-1.3c-0.4-0.2-0.9-0.4-1.2-0.7l-38.3-26.6l0,0c-4-2.8-6.3-7.2-6.3-12v-36.4
		c0-4.8,2.4-9.2,6.3-12l38.3-26.7c0.4-0.3,0.8-0.5,1.2-0.7c7.5-3.3,16.3,0,19.6,7.5c0.9,1.9,1.3,3.9,1.3,6v88.4
		C406.7,508.7,400.2,515.2,391.9,515.2L391.9,515.2L391.9,515.2z"/>
	<path class="st3" d="M306.1,522.5h-107c-21.8,0-39.5-14-39.5-31.1v-69.7c0-17.2,17.7-31.1,39.5-31.1h107.2
		c21.6,0,39.2,13.8,39.2,31v69.9C345.6,508.5,327.9,522.4,306.1,522.5z"/>
	<g>
		<ellipse class="st0" cx="714.7" cy="476.6" rx="31.8" ry="30.1"/>
		<path class="st1" d="M731.2,476.1l-25.3-13.8c-0.4-0.2-0.7-0.1-0.9,0.2c-0.1,0.1-0.1,0.2-0.1,0.3v27.7c0,0.3,0.3,0.6,0.6,0.6
			c0.1,0,0.3,0,0.4-0.1l25.3-13.8c0.4-0.2,0.4-0.6,0.3-0.8C731.4,476.2,731.3,476.1,731.2,476.1l-25.3-13.8
			c-0.4-0.2-0.7-0.1-0.9,0.2c-0.1,0.1-0.1,0.2-0.1,0.3v27.7c0,0.3,0.3,0.6,0.6,0.6c0.1,0,0.3,0,0.4-0.1l25.3-13.8
			c0.4-0.2,0.4-0.6,0.3-0.8C731.4,476.2,731.3,476.1,731.2,476.1z"/>
		<ellipse class="st0" cx="588.6" cy="526.2" rx="31.8" ry="30.1"/>
		<path class="st1" d="M605.1,525.7l-25.3-13.8c-0.4-0.2-0.7-0.1-0.9,0.2c-0.1,0.1-0.1,0.2-0.1,0.3v27.7c0,0.3,0.3,0.6,0.6,0.6
			c0.1,0,0.3,0,0.4-0.1l25.3-13.8c0.4-0.2,0.4-0.6,0.3-0.8C605.3,525.8,605.2,525.7,605.1,525.7l-25.3-13.8
			c-0.4-0.2-0.7-0.1-0.9,0.2c-0.1,0.1-0.1,0.2-0.1,0.3v27.7c0,0.3,0.3,0.6,0.6,0.6c0.1,0,0.3,0,0.4-0.1l25.3-13.8
			c0.4-0.2,0.4-0.6,0.3-0.8C605.3,525.8,605.2,525.7,605.1,525.7z"/>
		<ellipse class="st4" cx="464.6" cy="586.3" rx="31.8" ry="30.1"/>
		<path class="st1" d="M481.1,585.8L455.8,572c-0.4-0.2-0.7-0.1-0.9,0.2c-0.1,0.1-0.1,0.2-0.1,0.3v27.7c0,0.3,0.3,0.6,0.6,0.6
			c0.1,0,0.3,0,0.4-0.1l25.3-13.8c0.4-0.2,0.4-0.6,0.3-0.8C481.3,585.9,481.2,585.8,481.1,585.8L455.8,572c-0.4-0.2-0.7-0.1-0.9,0.2
			c-0.1,0.1-0.1,0.2-0.1,0.3v27.7c0,0.3,0.3,0.6,0.6,0.6c0.1,0,0.3,0,0.4-0.1l25.3-13.8c0.4-0.2,0.4-0.6,0.3-0.8
			C481.3,585.9,481.2,585.8,481.1,585.8z"/>
	</g>
</g>
<path class="st5" d="M60.1,13.9L34.7,0.1C34.3-0.1,34,0,33.8,0.3c-0.1,0.1-0.1,0.2-0.1,0.3v27.7c0,0.3,0.3,0.6,0.6,0.6
	c0.1,0,0.3,0,0.4-0.1L60.1,15c0.4-0.2,0.4-0.6,0.3-0.8C60.3,14,60.2,13.9,60.1,13.9L34.7,0.1C34.3-0.1,34,0,33.8,0.3
	c-0.1,0.1-0.1,0.2-0.1,0.3v27.7c0,0.3,0.3,0.6,0.6,0.6c0.1,0,0.3,0,0.4-0.1L60.1,15c0.4-0.2,0.4-0.6,0.3-0.8
	C60.3,14,60.2,13.9,60.1,13.9z"/>
<path class="st5" d="M191,65.2l-41.2-22.3c-0.6-0.3-1.1-0.1-1.4,0.4c-0.1,0.1-0.1,0.3-0.1,0.5v44.8c0,0.5,0.4,0.9,1,0.9
	c0.1,0,0.4,0,0.6-0.1L191,67.1c0.6-0.3,0.7-0.9,0.4-1.3C191.3,65.3,191.1,65.2,191,65.2l-41.2-22.3c-0.6-0.3-1.1-0.1-1.4,0.4
	c-0.1,0.1-0.1,0.3-0.1,0.5v44.8c0,0.5,0.4,0.9,1,0.9c0.1,0,0.4,0,0.6-0.1L191,67.1c0.6-0.3,0.7-0.9,0.4-1.3
	C191.3,65.3,191.1,65.2,191,65.2z"/>
<path class="st5" d="M665.4,748.2L640,734.4c-0.4-0.2-0.7-0.1-0.9,0.2c-0.1,0.1-0.1,0.2-0.1,0.3v27.7c0,0.3,0.3,0.6,0.6,0.6
	c0.1,0,0.3,0,0.4-0.1l25.4-13.8c0.4-0.2,0.4-0.6,0.3-0.8C665.6,748.3,665.5,748.2,665.4,748.2L640,734.4c-0.4-0.2-0.7-0.1-0.9,0.2
	c-0.1,0.1-0.1,0.2-0.1,0.3v27.7c0,0.3,0.3,0.6,0.6,0.6c0.1,0,0.3,0,0.4-0.1l25.4-13.8c0.4-0.2,0.4-0.6,0.3-0.8
	C665.6,748.3,665.5,748.2,665.4,748.2z"/>
<path class="st5" d="M796.3,799.5l-41.2-22.3c-0.6-0.3-1.1-0.1-1.4,0.4c-0.1,0.1-0.1,0.3-0.1,0.5v44.8c0,0.5,0.4,0.9,1,0.9
	c0.1,0,0.4,0,0.6-0.1l41.2-22.3c0.6-0.3,0.7-0.9,0.4-1.3C796.6,799.6,796.4,799.5,796.3,799.5l-41.2-22.3c-0.6-0.3-1.1-0.1-1.4,0.4
	c-0.1,0.1-0.1,0.3-0.1,0.5v44.8c0,0.5,0.4,0.9,1,0.9c0.1,0,0.4,0,0.6-0.1l41.2-22.3c0.6-0.3,0.7-0.9,0.4-1.3
	C796.6,799.6,796.4,799.5,796.3,799.5z"/>
<path class="st5" d="M182.9,748.2l-25.4-13.8c-0.4-0.2-0.7-0.1-0.9,0.2c-0.1,0.1-0.1,0.2-0.1,0.3v27.7c0,0.3,0.3,0.6,0.6,0.6
	c0.1,0,0.3,0,0.4-0.1l25.4-13.8c0.4-0.2,0.4-0.6,0.3-0.8C183.1,748.3,183,748.2,182.9,748.2l-25.4-13.8c-0.4-0.2-0.7-0.1-0.9,0.2
	c-0.1,0.1-0.1,0.2-0.1,0.3v27.7c0,0.3,0.3,0.6,0.6,0.6c0.1,0,0.3,0,0.4-0.1l25.4-13.8c0.4-0.2,0.4-0.6,0.3-0.8
	C183.1,748.3,183,748.2,182.9,748.2z"/>
<path class="st5" d="M415.1,724.4L374,702.1c-0.6-0.3-1.1-0.1-1.4,0.4c-0.1,0.1-0.1,0.3-0.1,0.5v44.8c0,0.5,0.4,0.9,1,0.9
	c0.1,0,0.4,0,0.6-0.1l41.2-22.3c0.6-0.3,0.7-0.9,0.4-1.3C415.4,724.6,415.3,724.4,415.1,724.4L374,702.1c-0.6-0.3-1.1-0.1-1.4,0.4
	c-0.1,0.1-0.1,0.3-0.1,0.5v44.8c0,0.5,0.4,0.9,1,0.9c0.1,0,0.4,0,0.6-0.1l41.2-22.3c0.6-0.3,0.7-0.9,0.4-1.3
	C415.4,724.6,415.3,724.4,415.1,724.4z"/>
<path class="st5" d="M521.7,790.9l-25.4-13.8c-0.4-0.2-0.7-0.1-0.9,0.2c-0.1,0.1-0.1,0.2-0.1,0.3v27.7c0,0.3,0.3,0.6,0.6,0.6
	c0.1,0,0.3,0,0.4-0.1l25.4-13.8c0.4-0.2,0.4-0.6,0.3-0.8C521.9,791,521.8,790.9,521.7,790.9l-25.4-13.8c-0.4-0.2-0.7-0.1-0.9,0.2
	c-0.1,0.1-0.1,0.2-0.1,0.3v27.7c0,0.3,0.3,0.6,0.6,0.6c0.1,0,0.3,0,0.4-0.1l25.4-13.8c0.4-0.2,0.4-0.6,0.3-0.8
	C521.9,791,521.8,790.9,521.7,790.9z"/>
<path class="st5" d="M301.4,785.4L276,771.6c-0.4-0.2-0.7-0.1-0.9,0.2c-0.1,0.1-0.1,0.2-0.1,0.3v27.7c0,0.3,0.3,0.6,0.6,0.6
	c0.1,0,0.3,0,0.4-0.1l25.4-13.8c0.4-0.2,0.4-0.6,0.3-0.8C301.6,785.5,301.5,785.4,301.4,785.4L276,771.6c-0.4-0.2-0.7-0.1-0.9,0.2
	c-0.1,0.1-0.1,0.2-0.1,0.3v27.7c0,0.3,0.3,0.6,0.6,0.6c0.1,0,0.3,0,0.4-0.1l25.4-13.8c0.4-0.2,0.4-0.6,0.3-0.8
	C301.6,785.5,301.5,785.4,301.4,785.4z"/>
<path class="st5" d="M45.6,763.3L4.4,741c-0.6-0.3-1.1-0.1-1.4,0.4c-0.1,0.1-0.1,0.3-0.1,0.5v44.8c0,0.5,0.4,0.9,1,0.9
	c0.1,0,0.4,0,0.6-0.1l41.2-22.3c0.6-0.3,0.7-0.9,0.4-1.3C45.9,763.5,45.7,763.3,45.6,763.3L4.4,741c-0.6-0.3-1.1-0.1-1.4,0.4
	c-0.1,0.1-0.1,0.3-0.1,0.5v44.8c0,0.5,0.4,0.9,1,0.9c0.1,0,0.4,0,0.6-0.1l41.2-22.3c0.6-0.3,0.7-0.9,0.4-1.3
	C45.9,763.5,45.7,763.3,45.6,763.3z"/>
<path class="st5" d="M683.4,32.3L658,18.5c-0.4-0.2-0.7-0.1-0.9,0.2c-0.1,0.1-0.1,0.2-0.1,0.3v27.7c0,0.3,0.3,0.6,0.6,0.6
	c0.1,0,0.3,0,0.4-0.1l25.4-13.8c0.4-0.2,0.4-0.6,0.3-0.8C683.6,32.4,683.5,32.3,683.4,32.3L658,18.5c-0.4-0.2-0.7-0.1-0.9,0.2
	c-0.1,0.1-0.1,0.2-0.1,0.3v27.7c0,0.3,0.3,0.6,0.6,0.6c0.1,0,0.3,0,0.4-0.1l25.4-13.8c0.4-0.2,0.4-0.6,0.3-0.8
	C683.6,32.4,683.5,32.3,683.4,32.3z"/>
<path class="st5" d="M801.9,69.5l-25.4-13.8c-0.4-0.2-0.7-0.1-0.9,0.2c-0.1,0.1-0.1,0.2-0.1,0.3V84c0,0.3,0.3,0.6,0.6,0.6
	c0.1,0,0.3,0,0.4-0.1l25.4-13.8c0.4-0.2,0.4-0.6,0.3-0.8C802.1,69.6,802,69.5,801.9,69.5l-25.4-13.8c-0.4-0.2-0.7-0.1-0.9,0.2
	c-0.1,0.1-0.1,0.2-0.1,0.3V84c0,0.3,0.3,0.6,0.6,0.6c0.1,0,0.3,0,0.4-0.1l25.4-13.8c0.4-0.2,0.4-0.6,0.3-0.8
	C802.1,69.6,802,69.5,801.9,69.5z"/>
<path class="st5" d="M546.1,47.4l-41.2-22.3c-0.6-0.3-1.1-0.1-1.4,0.4c-0.1,0.1-0.1,0.3-0.1,0.5v44.8c0,0.5,0.4,0.9,1,0.9
	c0.1,0,0.4,0,0.6-0.1l41.2-22.3c0.6-0.3,0.7-0.9,0.4-1.3C546.4,47.6,546.2,47.4,546.1,47.4l-41.2-22.3c-0.6-0.3-1.1-0.1-1.4,0.4
	c-0.1,0.1-0.1,0.3-0.1,0.5v44.8c0,0.5,0.4,0.9,1,0.9c0.1,0,0.4,0,0.6-0.1l41.2-22.3c0.6-0.3,0.7-0.9,0.4-1.3
	C546.4,47.6,546.2,47.4,546.1,47.4z"/>
<path class="st5" d="M353,13.9L327.6,0.1c-0.4-0.2-0.7-0.1-0.9,0.2c-0.1,0.1-0.1,0.2-0.1,0.3v27.7c0,0.3,0.3,0.6,0.6,0.6
	c0.1,0,0.3,0,0.4-0.1L353,15c0.4-0.2,0.4-0.6,0.3-0.8C353.2,14,353.1,13.9,353,13.9L327.6,0.1c-0.4-0.2-0.7-0.1-0.9,0.2
	c-0.1,0.1-0.1,0.2-0.1,0.3v27.7c0,0.3,0.3,0.6,0.6,0.6c0.1,0,0.3,0,0.4-0.1L353,15c0.4-0.2,0.4-0.6,0.3-0.8
	C353.2,14,353.1,13.9,353,13.9z"/>
<path class="st5" d="M398.8,80l-25.4-13.8c-0.4-0.2-0.7-0.1-0.9,0.2c-0.1,0.1-0.1,0.2-0.1,0.3v27.7c0,0.3,0.3,0.6,0.6,0.6
	c0.1,0,0.3,0,0.4-0.1l25.4-13.8c0.4-0.2,0.4-0.6,0.3-0.8C399,80.1,398.9,80,398.8,80l-25.4-13.8c-0.4-0.2-0.7-0.1-0.9,0.2
	c-0.1,0.1-0.1,0.2-0.1,0.3v27.7c0,0.3,0.3,0.6,0.6,0.6c0.1,0,0.3,0,0.4-0.1l25.4-13.8c0.4-0.2,0.4-0.6,0.3-0.8
	C399,80.1,398.9,80,398.8,80z"/>
</svg>
