<?xml version="1.0" encoding="utf-8"?>
<!-- Generator: Adobe Illustrator 22.0.0, SVG Export Plug-In . SVG Version: 6.00 Build 0)  -->
<svg version="1.1" id="a335945a-1107-4320-8aa0-2afe397d1c78"
	 xmlns="http://www.w3.org/2000/svg" xmlns:xlink="http://www.w3.org/1999/xlink" x="0px" y="0px" viewBox="0 0 802.2 825.6"
	 style="enable-background:new 0 0 802.2 825.6;" xml:space="preserve">
<style type="text/css">
	.st0{fill:#FEB9B9;}
	.st1{fill:#2F2E41;}
	.st2{fill:#1E91C4;}
	.st3{fill:#5C15CC;}
	.st4{fill:#E6E6E6;}
	.st5{fill:#FFFFFF;}
	.st6{fill:#3F3D56;}
	.st7{fill:#8025FE;}
</style>
<title>Playful cat</title>
<g>
	<g id="a716a1f1-6b00-4465-bd1c-a2c028b5604e_1_">
		<path id="e54e6529-6084-4a1d-add3-90a4c5cc374f_1_" class="st0" d="M717.7,732.8v14.4l12,0.8l-0.8-16.8L717.7,732.8z"/>
		<path id="aa7fe956-15fa-49a3-841c-8afb545ad874_1_" class="st1" d="M720.1,739.2l-8-1.6c0,0-11.2,20-18.4,21.6
			c-6.3,1.4-21.1,6.5-15.7,13.6c1.6,2.1,4.3,3.1,6.9,2.9l34.3-2.9c0,0,13.5,0.8,13.5-7.1v-26.4H720.1z"/>
		<path id="a7ac59d0-4c5e-451c-bf35-4efdeb5633c0_1_" class="st2" d="M718.7,658.3l-3.5,78.1l21.8,5.7L718.7,658.3z"/>
		<path id="a08adc14-3209-4395-823e-cebe9963673a_1_" class="st0" d="M726.8,763.9v20.7l17.2,1.2l-1.2-24.2L726.8,763.9z"/>
		<path id="ed07c175-0c25-405a-a991-c8f0d9251695_1_" class="st2" d="M691.2,558.5l9.2,13.8l20.7,124l3.5,74.6h34.3l-8-181.4
			c0,0,16-19.5,4.5-39L691.2,558.5z"/>
		<path id="b2f37150-101e-4b97-a3bb-c9b520730644_1_" class="st1" d="M730.2,773.1l-11.5-2.3c0,0-16,28.7-26.4,31
			c-8.9,1.9-29.6,9-23,19c2.4,3.4,6.3,5.2,10.4,4.8l49.3-4.2c0,0,19.5,1.2,19.5-10.3v-37.9H730.2z"/>
		<circle id="e8ae8751-5f15-4e1d-ab3e-c03bed5425dd_1_" class="st0" cx="731.4" cy="377.1" r="24.2"/>
		<path id="a4692f39-5944-448e-9eb0-f63e3a7ffbbc_1_" class="st0" d="M717.6,389.8v34.4c0,1.2,26.4-2.3,26.4-2.3s1.2-32.2,1.2-35.6
			L717.6,389.8z"/>
		<path id="e4631c2d-bf0b-4189-a249-c10b314651dc_1_" class="st3" d="M746.3,404.6c0,0-14.9-3.5-41.4,13.8h-4.5l-1.2,26.4
			c0,0-16,17.2-13.8,24.2c0,0-19.5,23-11.5,32.2c0,0-18.4,21.8-10.3,31c0,0-19.5,25.2-8,28.7c0,0,25.2,0,39,2.3s71.2-10.3,71.2-10.3
			s1.2-29.9,0-29.9h-1.2c0,0,4.5-27.5,2.3-28.7c0,0,1.2-31-2.3-32.2L746.3,404.6z"/>
		<path id="b575756a-b91e-42cf-a15b-1b60f6a2610c_1_" class="st4" d="M742.6,431c-8.6,1.2-15.9,6.6-19.5,14.5
			c-3.4,7.4-4.4,15.5-3.1,23.4c3.5,23,11.5,29.9,11.5,29.9s-8,3.5-5.7,6.9s-2.3,3.5-2.3,3.5s0,1.2-3.5,3.5c-3.5,2.3-5.7,1.2-6.9,2.3
			c-1.2,1.1-5.7,0-5.7,0s-13.8,24.2,0,26.4s19.5-9.2,25.2-8c5.7,1.2,33.2-8,31-29.9c-2.3-21.9-12.7-73.4-20.7-72.3L742.6,431z"/>
		<path id="b8099647-f139-4340-a743-fc574e29cdbc_1_" class="st1" d="M710,354.1c1.2-4.8,4.5-8.8,9.2-10.6c4.5-1.8,11-7,15.2-4.4
			c1.8,1.2,3.4,2.7,5.3,3.8c3,1.7,6.7,1.9,10.2,2.5c8.7,1.4,16,11,22.1,17.4s9.6,15.4,8.6,24.2c-0.8,5.7-3.4,11.2-5.1,16.7
			s-2.5,11.9,0.3,17c3.2,5.8,10.1,8.6,14.7,13.3c6.6,7.1,7.9,17.8,3,26.2c-1.2,1.6-2.2,3.5-2.9,5.3c-0.5,1.9-0.1,4.4,1.7,5.3
			c0.9,0.3,1.6,0.5,2.5,0.8c2.9,0.9,4.7,3.8,5.4,6.7c0.8,2.9,0.9,6,1.7,8.8c2.3,6.9-13.5,6.2-7.1,9.9c-12.6-0.3-2.7,4.3-14.8,7.5
			c-5.2,1.4-11.3,3.2-15.7,0.1c-3-2.2-4.1-6.2-4.2-9.9s0.6-7.4,0.6-11.2c-0.3-8.1-4.3-15.7-10.8-20.7c-3.8-2.9-8.1-5-11.7-8.1
			c-6.2-5.6-9-14-7.5-22.1c0.5-2.9,1.6-5.7,1.5-8.7c-0.3-5.7-5.3-10.3-6.4-16c-1.1-6,2.3-11.8,3.2-17.8c0.4-3.7,0.3-7.4-0.2-11
			c-0.8-6.1-1.8-12.3-5.4-17.2c-3.4-4.7-8-7.7-13.8-8c-1.8-0.1,0.8-1.7,0,0"/>
		<ellipse id="b40a0ec8-8cea-415f-b8a8-4fdbfa219479_1_" class="st0" cx="729.6" cy="378.8" rx="2.3" ry="4.5"/>
	</g>
	<path id="fc914514-1042-4f3e-9382-2a2bd3a05a2f_1_" class="st4" d="M53.6,0.8c-1.7,0-3.1,1.4-3.1,3.1V111c0,1.7,1.4,3.1,3.1,3.1
		h365.2c1.7,0,3.1-1.4,3.1-3.1V3.9c0-1.7-1.4-3.1-3.1-3.1L53.6,0.8z"/>
	<path id="fc60a940-5b5f-47e1-886f-8b9349204f05_1_" class="st5" d="M58.3,106.3h355.6V8.6H58.3V106.3z"/>
	<path id="b37dca77-34e7-4938-924b-74ea49a8e34b_1_" class="st4" d="M364,82.5c-2.9,0-5.2,2.3-5.2,5.2s2.3,5.2,5.2,5.2h20.8
		c2.9,0,5.2-2.3,5.2-5.2s-2.3-5.2-5.2-5.2H364z"/>
	<rect id="a114a1b8-363a-4115-bcea-0275bda15cb1_1_" x="155" y="76" class="st4" width="240.1" height="1.4"/>
	<circle id="fd059875-cd6f-429e-81eb-c199f1a3d666_1_" class="st4" cx="104.8" cy="57.4" r="30.3"/>
	<path id="ad693766-5e26-437f-8d3d-58ce33ee9e84_1_" class="st6" d="M155.4,68.3l-0.8-1.2l25-16.6l17.2,8.2l24.6-15.8l0.3,0.1
		l48.6,20.7l39-19.1L347.2,60l47.5,9.7l0.9,1l-48.2-9.1l-38.1-15.4l-39,19.1l-48.8-20.7l-24.6,15.8l-17.2-8.2L155.4,68.3z"/>
	<path id="ff424c2d-4733-4249-9b35-4eb43ebe2556_1_" class="st4" d="M159.4,86.8c-2.4,0-4.4,2.1-4.4,4.5s2,4.4,4.4,4.4h46.5
		c2.4,0,4.5-2,4.5-4.4c0-2.4-2-4.5-4.4-4.5h-0.1H159.4z"/>
	<path class="st5" d="M117,57.1c-0.7-0.7-1.8-0.7-2.5,0l0,0l-7.8,7.8V45.7c0-1-0.8-1.8-1.8-1.8c-1,0-1.8,0.8-1.8,1.8v19.2l-7.8-7.8
		c-0.7-0.7-1.8-0.7-2.5,0c-0.7,0.7-0.7,1.8,0,2.5l0,0l10.9,10.9c0.7,0.7,1.8,0.7,2.5,0L117,59.6C117.7,58.9,117.7,57.8,117,57.1z"/>
	<path id="ebf544e0-cedc-491d-9ace-ce79788cc3b4_1_" class="st4" d="M197.3,172.3c-1.7,0-3.1,1.4-3.1,3.1v107.1
		c0,1.7,1.4,3.1,3.1,3.1h365.2c1.7,0,3.1-1.4,3.1-3.1V175.4c0-1.7-1.4-3.1-3.1-3.1H197.3z"/>
	<path id="f05ecdaf-6a8f-49c4-b8a7-f7e5ce9efcf7_1_" class="st5" d="M202,277.8h355.6v-97.6H202V277.8z"/>
	<path id="a9f7bc9d-00a6-4157-bba1-ffc7ec111a68_1_" class="st7" d="M512.8,257.5c-2.9,0-5.2,2.3-5.2,5.2s2.3,5.2,5.2,5.2h20.8
		c2.9,0,5.2-2.3,5.2-5.2s-2.3-5.2-5.2-5.2H512.8L512.8,257.5z"/>
	<rect id="a15d3d52-efbb-4636-8d15-228635c5d6e5_1_" x="298.7" y="247.4" class="st4" width="240.1" height="1.4"/>
	<circle id="e4ee77d8-efe6-4a2a-a3ed-71b8f3ee957e_1_" class="st2" cx="248.5" cy="229" r="30.3"/>
	<path id="fc1c89ac-2b6e-4831-b128-0ac2ab1fa850_1_" class="st6" d="M299,239.8l-0.8-1.2l25-16.7l17.2,8.2l24.6-15.8l0.3,0.1
		l48.6,20.7l39-19.1l37.9,15.3l47.5-42.1l0.9,1l-48.2,42.9L453,217.8l-39,19.1l-48.8-20.8l-24.6,15.8l-17-8.2L299,239.8z"/>
	<path id="bd690ac4-3df0-4871-95d5-adaa934b7c24_1_" class="st4" d="M303.1,258.2c-2.4,0-4.5,2-4.5,4.4s2,4.5,4.4,4.5l0,0h0.1h46.5
		c2.4,0,4.4-2.1,4.4-4.5s-2-4.4-4.4-4.4H303.1z"/>
	<path class="st5" d="M236.3,229.3c0.7,0.7,1.8,0.7,2.5,0l0,0l7.8-7.8v19.2c0,1,0.8,1.8,1.8,1.8c1,0,1.8-0.8,1.8-1.8v-19.2l7.8,7.8
		c0.7,0.7,1.8,0.7,2.5,0c0.7-0.7,0.7-1.8,0-2.5l-10.9-10.9c-0.7-0.7-1.8-0.7-2.5,0l-10.9,10.9C235.6,227.5,235.6,228.6,236.3,229.3
		L236.3,229.3z"/>
	<path id="b1a491a7-739b-4f1f-bff8-dbf70f6892c8_1_" class="st4" d="M6.1,343.7c-1.7,0-3.1,1.4-3.1,3.1v107.1c0,1.7,1.4,3.1,3.1,3.1
		h365.2c1.7,0,3.1-1.4,3.1-3.1V346.9c0-1.7-1.4-3.1-3.1-3.1H6.1z"/>
	<path id="acd48b1a-d10a-4276-b388-f016adebff0c_1_" class="st5" d="M10.8,449.3h355.6v-97.6H10.8V449.3z"/>
	<path id="bed21912-b6c9-41df-a59b-963435bac71a_1_" class="st7" d="M321.6,429c-2.9,0-5.2,2.3-5.2,5.2s2.3,5.2,5.2,5.2h20.8
		c2.9,0,5.2-2.3,5.2-5.2s-2.3-5.2-5.2-5.2H321.6z"/>
	<rect id="a26455fb-834b-4368-afb2-80d86a75d46a_1_" x="107.5" y="418.9" class="st4" width="240.1" height="1.4"/>
	<circle id="f17c58cd-37a1-42e1-9e5f-26c2ec8825b4_1_" class="st2" cx="57.3" cy="400.5" r="30.3"/>
	<path id="b803193f-4714-40c6-8606-08b9dea6d22d_1_" class="st6" d="M107.8,411.3l-0.8-1.2l25-16.7l17.2,8.2l24.6-15.8l48.9,20.8
		l39-19.1l37.9,15.3l47.5-19.1l0.9,1l-48.2,19.7l-38.1-15.4l-39,19.1l-48.9-20.8l-24.6,15.8L132,395L107.8,411.3z"/>
	<path id="b19b31b4-3a52-4fc9-8ed4-dc6729deb0ed_1_" class="st4" d="M111.9,429.7c-2.4,0-4.4,2.1-4.4,4.5s2,4.4,4.4,4.4h46.5
		c2.4,0,4.5-2,4.5-4.4c0-2.4-2-4.5-4.4-4.5h-0.1H111.9z"/>
	<path class="st5" d="M45.1,400.8c0.7,0.7,1.8,0.7,2.5,0l0,0l7.8-7.8v19.2c0,1,0.8,1.8,1.8,1.8c1,0,1.8-0.8,1.8-1.8l0,0V393l7.8,7.8
		c0.7,0.7,1.8,0.7,2.5,0c0.7-0.7,0.7-1.8,0-2.5l0,0l-10.9-10.9c-0.7-0.7-1.8-0.7-2.5,0l-10.9,10.9C44.4,399,44.4,400.2,45.1,400.8z"
		/>
</g>
</svg>
