<?xml version="1.0" encoding="utf-8"?>
<!-- Generator: Adobe Illustrator 22.0.0, SVG Export Plug-In . SVG Version: 6.00 Build 0)  -->
<svg version="1.1" id="a335945a-1107-4320-8aa0-2afe397d1c78"
	 xmlns="http://www.w3.org/2000/svg" xmlns:xlink="http://www.w3.org/1999/xlink" x="0px" y="0px" viewBox="0 0 802.2 825.6"
	 style="enable-background:new 0 0 802.2 825.6;" xml:space="preserve">
<style type="text/css">
	.st0{fill:#FFD180;}
	.st1{opacity:0.1;}
	.st2{opacity:0.1;enable-background:new    ;}
	.st3{fill:#6C63FF;}
	.st4{fill:#FFFFFF;}
	.st5{fill:#58555D;}
	.st6{opacity:0.5;fill:#58555D;enable-background:new    ;}
	.st7{fill:#4D8AF0;}
	.st8{fill:#1E91C4;}
	.st9{opacity:0.1;fill:url(#SVGID_1_);enable-background:new    ;}
	.st10{fill:#3F3D56;}
	.st11{fill:#68CBFF;}
	.st12{opacity:0.5;}
	.st13{fill:url(#SVGID_2_);}
	.st14{fill:#5C15CC;}
	.st15{fill:url(#SVGID_3_);}
	.st16{opacity:0.2;fill:none;stroke:#000000;stroke-miterlimit:10;enable-background:new    ;}
</style>
<title>Playful cat</title>
<path class="st0" d="M593.6,383.9c14.4,1.4,28.8-1.8,42.6-5.9c27.5-8,56-20.7,70.2-45.5c5.2-9.1,8.2-19.2,11.1-29.2
	c5.9-20.3,11.8-40.7,12.7-61.8c1-23.2-4-46.2-14.6-66.9c-1.6-3.1-4.2-5.6-7.4-6.9c-5.6-2.2-8.7,0.8-11.1,3.9
	c-14.9,19-13.3,45.5-14.6,69.6c-1.2,24.2-6,48-14.1,70.8c-3.4,9.7-7.9,19.8-16.7,25.2c-5.3,3.3-11.7,4.6-17.9,5.7
	c-9.2,1.7-19.3,3.4-27.6-1.1c-8.5-4.6-14.1-16.4-23.9-18.3c-9.7-1.9-22.9,8.2-27.2,16.8C543.5,363.5,574.4,382,593.6,383.9z"/>
<g class="st1">
	<path d="M651.8,337.3c-5.3,3.3-11.7,4.6-17.9,5.7c-6.3,1.2-13.1,2.3-19.4,1.4c7.9,3.3,17.1,1.9,25.7,0.2c6.2-1.2,12.5-2.4,17.9-5.7
		c8.7-5.4,13.2-15.5,16.6-25.2c8.1-22.8,12.8-46.7,14.1-70.8c1.2-24.1-0.3-50.6,14.6-69.6c1.7-2.2,3.8-4.3,6.8-4.6
		c-0.6-0.4-1.3-0.7-2-1c-5.6-2.2-8.7,0.8-11.1,3.9c-14.9,19-13.3,45.5-14.6,69.6c-1.2,24.2-6,48-14.1,70.8
		C665,321.8,660.5,331.9,651.8,337.3z"/>
	<path d="M561.5,342.1c4-7.9,15.6-17.2,25-17c-1.3-0.7-2.6-1.2-4.1-1.5c-9.7-1.9-22.9,8.2-27.2,16.8c-10.9,21.6,15.2,39.1,34.4,42.9
		C571.6,377.4,551.7,361.4,561.5,342.1z"/>
</g>
<rect x="517" y="144.8" transform="matrix(0.4459 -0.8951 0.8951 0.4459 88.4916 618.7482)" class="st2" width="53.9" height="186.2"/>
<rect x="520.6" y="142.6" transform="matrix(0.4459 -0.8951 0.8951 0.4459 91.0602 618.5107)" class="st3" width="49" height="186.2"/>
<circle class="st3" cx="579.3" cy="199.9" r="29.4"/>
<path class="st0" d="M557,46.5c0,0,50.9,13.8,69.4,34.6c0,0,30-25.5,43.9-18.6s-6.8,60.1-6.8,60.1L645.1,206
	c0,0,9.6,201.2-119.9,240.7S303,324.5,333,264.3C363,204.1,453,93,453,93s78.5-88,92.4-92.7S557,46.5,557,46.5z"/>
<g class="st1">
	<path class="st4" d="M634.4,308.7c7.9-33.6,11.5-68.1,10.7-102.7l-2.9,13.2C642.9,249.2,640.3,279.2,634.4,308.7z"/>
	<path class="st4" d="M347.5,256c30-60.2,102.6-149.9,102.6-149.9s78.5-88,92.4-92.7c13.9-4.6,11.6,46.2,11.6,46.2
		s50.9,13.8,69.4,34.6c0,0,30-25.5,43.9-18.6c5.4,2.7,5.6,12.4,3.8,23.2c4-15.1,6.7-32.6-0.8-36.3c-13.9-6.9-43.9,18.6-43.9,18.6
		C607.9,60.3,557,46.5,557,46.5s2.2-50.9-11.6-46.2C531.5,4.9,453,93,453,93s-72.6,89.7-102.6,149.9
		C347.7,248.3,346.6,257.7,347.5,256z"/>
</g>
<circle class="st5" cx="606.9" cy="172.5" r="10.3"/>
<circle class="st5" cx="500.5" cy="119.5" r="10.3"/>
<ellipse transform="matrix(0.4459 -0.8951 0.8951 0.4459 165.539 580.2376)" class="st5" cx="551.4" cy="156.4" rx="10.3" ry="15.5"/>
<rect x="655.3" y="168.3" transform="matrix(0.2413 -0.9705 0.9705 0.2413 312.695 784.1785)" class="st0" width="5.2" height="47.7"/>
<rect x="648.4" y="185.4" transform="matrix(0.2624 -0.965 0.965 0.2624 275.7761 784.3469)" class="st0" width="5.2" height="52.7"/>
<rect x="449.2" y="50.1" transform="matrix(0.7464 -0.6655 0.6655 0.7464 62.7186 320.445)" class="st0" width="5.2" height="55.7"/>
<rect x="433.1" y="59" transform="matrix(0.5768 -0.8169 0.8169 0.5768 108.4127 395.2352)" class="st0" width="5.2" height="68"/>
<path class="st2" d="M463.1,284.8c0,0-2.7,86-47.9,71s6.2-70.1,6.2-70.1s5.3-21.3-4.4-27.5"/>
<path class="st2" d="M502.9,302.5c0,0-71.6,47.8-34.8,78.2s56.2-42.4,56.2-42.4s15.2-15.8,25.7-10.8"/>
<path class="st0" d="M460.3,281c0,0-2.7,86-47.9,71s6.2-70.1,6.2-70.1s5.3-21.3-4.4-27.5"/>
<path class="st0" d="M507.3,301c0,0-71.6,47.8-34.8,78.2s56.2-42.4,56.2-42.4s15.2-15.8,25.7-10.8"/>
<rect x="395.4" y="337.3" transform="matrix(0.4459 -0.8951 0.8951 0.4459 -78.9683 547.8822)" class="st6" width="15.3" height="0.8"/>
<rect x="407.1" y="343.1" transform="matrix(0.4459 -0.8951 0.8951 0.4459 -77.7015 561.5812)" class="st6" width="15.3" height="0.8"/>
<rect x="398.5" y="338.3" transform="matrix(0.4459 -0.8951 0.8951 0.4459 -76.4827 553.9701)" class="st6" width="21.4" height="0.8"/>
<rect x="472.9" y="372.3" transform="matrix(0.4459 -0.8951 0.8951 0.4459 -67.3099 636.6087)" class="st6" width="15.3" height="0.8"/>
<rect x="484.6" y="378.1" transform="matrix(0.4459 -0.8951 0.8951 0.4459 -66.0432 650.3077)" class="st6" width="15.3" height="0.8"/>
<rect x="476" y="373.3" transform="matrix(0.4459 -0.8951 0.8951 0.4459 -64.8244 642.6967)" class="st6" width="21.4" height="0.8"/>
<path class="st2" d="M510.4,209.9c-12.1-6-23.7-13.1-34.6-21.1c-34.4-25.3-52.9-54.9-53.6-56l5.3-6.7c0.2,0.3,20.8,31.4,53.9,55.7
	c30.5,22.3,88.7,49.2,162.9,46l0.4,9C590.8,239.1,541.9,225.6,510.4,209.9z"/>
<path class="st7" d="M509.6,215.7l-0.2-0.5c2.9-0.6,4.9-3.4,4.3-6.3c-0.1-0.5-0.2-1-0.5-1.4l0.5-0.2c1.4,2.9,0.2,6.5-2.7,7.9
	C510.5,215.4,510.1,215.6,509.6,215.7z"/>
<path class="st2" d="M509.6,215.7l-0.2-0.5c2.9-0.6,4.9-3.4,4.3-6.3c-0.1-0.5-0.2-1-0.5-1.4l0.5-0.2c1.4,2.9,0.2,6.5-2.7,7.9
	C510.5,215.4,510.1,215.6,509.6,215.7z"/>
<path class="st8" d="M645.2,226c-74.3,3.1-132.5-23.7-162.9-46c-33.1-24.2-53.8-55.4-53.9-55.7l-7.7,4.7c0.7,1.1,21.5,32.7,55.9,58
	c10.9,8,22.5,15.1,34.6,21.1c31.6,15.7,80.4,29.2,134.4,26.9L645.2,226z M513,208.3c-0.5-0.2-0.7-0.8-0.4-1.3
	c0.2-0.5,0.8-0.7,1.3-0.4c0.5,0.2,0.7,0.8,0.4,1.3C514.1,208.3,513.5,208.5,513,208.3C513,208.3,513,208.3,513,208.3z"/>
<linearGradient id="SVGID_1_" gradientUnits="userSpaceOnUse" x1="915.0763" y1="249.2289" x2="915.0763" y2="269.2289" gradientTransform="matrix(0.8951 0.4459 0.4459 -0.8951 -427.8678 44.8357)">
	<stop  offset="0" style="stop-color:#FFFFFF"/>
	<stop  offset="1" style="stop-color:#000000"/>
</linearGradient>
<path class="st9" d="M497.8,216.3L497.8,216.3c-2.5,4.9-0.5,10.9,4.5,13.4l0,0c4.9,2.5,10.9,0.5,13.4-4.5l0,0l0,0
	c2.5-4.9,0.5-10.9-4.5-13.4l0,0C506.3,209.4,500.3,211.4,497.8,216.3C497.8,216.3,497.8,216.3,497.8,216.3z M509,216.3
	c-0.8-0.4-1.2-1.4-0.7-2.2c0.4-0.8,1.4-1.2,2.2-0.7c0.8,0.4,1.2,1.4,0.7,2.2v0C510.9,216.4,509.9,216.7,509,216.3L509,216.3z"/>
<path class="st8" d="M498.7,216.8L498.7,216.8c-2.2,4.4-0.4,9.9,4,12.1l0,0c4.4,2.2,9.9,0.4,12.1-4l0,0c2.2-4.4,0.4-9.9-4-12.1l0,0
	C506.4,210.5,501,212.3,498.7,216.8z M508.8,216.8c-0.7-0.4-1-1.3-0.7-2c0.4-0.7,1.3-1,2-0.7c0.7,0.4,1,1.3,0.7,2c0,0,0,0,0,0
	C510.4,216.8,509.5,217.1,508.8,216.8C508.8,216.8,508.8,216.8,508.8,216.8L508.8,216.8z"/>
<path class="st7" d="M509.2,215.5c-1.4-2.9-0.2-6.5,2.7-7.9c0.5-0.2,0.9-0.4,1.5-0.5l0.1,0.5c-2.9,0.6-4.9,3.4-4.3,6.3
	c0.1,0.5,0.3,0.9,0.5,1.4L509.2,215.5z"/>
<polyline class="st7" points="513.5,207.4 513.5,207.4 513.5,207.4 513.5,207.4 "/>
<path class="st0" d="M632,222.8c-159.3,11.1-196.9-91.4-196.9-91.4L632,222.8z"/>
<path class="st10" d="M216.3,578.3h-20.9v176.5c0,0,134.8,43.7,265.7,0V578.3H216.3z"/>
<ellipse class="st10" cx="326.3" cy="579.3" rx="131" ry="19.9"/>
<ellipse class="st2" cx="326.3" cy="579.3" rx="131" ry="19.9"/>
<path class="st10" d="M478.6,367.4c-33,122.1-146.2,197.8-146.2,197.8s-59.6-122.4-26.6-244.5S452,122.9,452,122.9
	S511.6,245.3,478.6,367.4z"/>
<path class="st11" d="M178,367.4c33,122.1,146.2,197.8,146.2,197.8s59.6-122.4,26.6-244.5S204.6,122.9,204.6,122.9
	S145,245.3,178,367.4z"/>
<path class="st10" d="M226.6,341.2c90.7,88.3,101.7,223.9,101.7,223.9s-135.9-7.4-226.6-95.7S0,245.5,0,245.5
	S135.9,252.9,226.6,341.2z"/>
<path class="st10" d="M430,341.2c-90.7,88.3-101.7,223.9-101.7,223.9s135.9-7.4,226.6-95.7s101.7-223.9,101.7-223.9
	S520.7,252.9,430,341.2z"/>
<circle class="st11" cx="328.2" cy="122.8" r="41.8"/>
<g class="st12">
	
		<linearGradient id="SVGID_2_" gradientUnits="userSpaceOnUse" x1="1319.4817" y1="-386.7095" x2="1319.4817" y2="-198.6979" gradientTransform="matrix(0.9961 -8.800000e-02 -8.800000e-02 -0.9961 -631.9113 556.1351)">
		<stop  offset="0" style="stop-color:#808080;stop-opacity:0.25"/>
		<stop  offset="0.5351" style="stop-color:#808080;stop-opacity:0.12"/>
		<stop  offset="1" style="stop-color:#808080;stop-opacity:0.1"/>
	</linearGradient>
	<circle class="st13" cx="708.2" cy="731.6" r="94"/>
</g>
<circle class="st14" cx="708.2" cy="731.6" r="88"/>
<g class="st12">
	
		<linearGradient id="SVGID_3_" gradientUnits="userSpaceOnUse" x1="1115.9039" y1="-330.0575" x2="1115.9039" y2="28.0388" gradientTransform="matrix(0.9961 -8.800000e-02 -8.800000e-02 -0.9961 -631.9113 556.1351)">
		<stop  offset="0" style="stop-color:#808080;stop-opacity:0.25"/>
		<stop  offset="0.5351" style="stop-color:#808080;stop-opacity:0.12"/>
		<stop  offset="1" style="stop-color:#808080;stop-opacity:0.1"/>
	</linearGradient>
	<path class="st15" d="M452.9,791.6c-13.3,1.2-27.9-5.4-30.8-18.6c-1.7-7.6,1-15,3.5-22.2c2.8-7.9,5.2-14.7,1.7-20.3
		c-1.6-2.6-4.3-4.5-7.1-6.2c-3.6-2.2-7.4-4.3-11.1-6.3c-6.4-3.4-13.1-7-19-11.7c-11.6-9.3-17.5-21.6-15.7-33.1
		c1.5-9.9,8.2-17.5,14.7-24.8c6.6-7.5,12.9-14.6,12.7-23.3c-0.2-11.8-12.3-20.3-22.9-27.8l-1.7-1.2c-13-9.2-25.5-25.1-17.9-39.7
		c2.6-5.1,7.1-8.4,11.3-11.6c2.9-1.9,5.5-4.2,7.8-6.8c7.8-9.7,3.8-24,1.7-29.7c-1.6-4.3-3.6-8.7-5.6-12.9c-2.9-6.2-6-12.6-7.8-19.5
		l-0.3-1.1c-4.3-16.6-4.3-17.2,0.2-33.2l0.6-2l6.7,1.9l-0.6,2c-4.1,14.4-4.1,14.4-0.2,29.5l0.3,1.1c1.6,6.2,4.4,12.1,7.3,18.2
		c2.1,4.3,4.2,8.8,5.9,13.5c5.2,14.4,4.2,27.7-2.9,36.5c-2.7,3.1-5.7,5.8-9.1,8.1c-3.8,2.8-7.4,5.5-9.3,9.2
		c-5.9,11.4,7.1,24.7,15.7,30.8l1.7,1.2c11.4,8,25.6,18,25.9,33.4c0.2,11.4-7.3,19.9-14.5,28c-6.1,6.9-11.8,13.4-13,21.2
		c-1.6,10.5,5.7,20.6,13.1,26.5c5.4,4.3,11.5,7.6,17.9,11c3.8,2,7.8,4.2,11.5,6.5c3.5,2.2,7,4.7,9.3,8.5c5.2,8.5,2,17.5-1.1,26.3
		c-2.3,6.6-4.5,12.8-3.3,18.4c2.2,10.2,15.7,14.9,26.3,12.7c8.7-1.8,16.4-6.6,24.5-11.7c2.6-1.6,5.3-3.3,8.1-4.9
		c14.9-8.6,28.5-10.7,39.1-6.1c3.4,1.6,6.5,3.5,9.5,5.8c2.3,1.7,4.7,3.3,7.3,4.6c12,5.2,26.1,0.4,32.2-11.2c0.5-1.1,1-2.2,1.5-3.4
		c1.6-3.9,3.3-8.2,7.3-11c4.2-2.9,9.4-2.8,13.2-2.8l39.1,0.3l-0.1,7l-39.1-0.3c-3.7,0-7,0.1-9.2,1.6c-2.3,1.5-3.5,4.6-4.8,7.8
		c-0.5,1.3-1,2.6-1.6,3.8c-7.9,15.1-26.1,21.4-41.6,14.5c-2.9-1.5-5.7-3.3-8.3-5.2c-2.5-2-5.3-3.7-8.2-5.1
		c-10.8-4.7-23.8,0.5-32.9,5.7c-2.6,1.5-5.3,3.2-7.9,4.8c-8.3,5.2-16.9,10.5-26.8,12.6C455.4,791.3,454.2,791.5,452.9,791.6z"/>
</g>
<path class="st14" d="M454.6,788.5c-13.3,1.2-27.9-5.4-30.8-18.6c-1.7-7.6,1-15,3.5-22.2c2.8-7.9,5.2-14.7,1.7-20.3
	c-1.6-2.6-4.3-4.5-7.1-6.2c-3.6-2.2-7.4-4.3-11.1-6.3c-6.4-3.4-13.1-7-19-11.7c-11.6-9.3-17.5-21.6-15.7-33.1
	c1.5-9.9,8.2-17.5,14.7-24.8c6.6-7.5,12.9-14.6,12.7-23.3c-0.2-11.8-12.3-20.3-22.9-27.8l-1.7-1.2c-13-9.2-25.5-25.1-17.9-39.7
	c2.6-5.1,7.1-8.4,11.3-11.6c2.9-1.9,5.5-4.2,7.8-6.8c7.8-9.7,3.8-24,1.7-29.7c-1.6-4.3-3.6-8.7-5.6-12.9c-2.9-6.2-6-12.6-7.8-19.5
	l-0.3-1.1c-4.3-16.6-4.3-17.2,0.2-33.2l0.6-2l6.7,1.9l-0.6,2c-4.1,14.4-4.1,14.4-0.2,29.5l0.3,1.1c1.6,6.2,4.4,12.1,7.3,18.2
	c2.1,4.3,4.2,8.8,5.9,13.5c5.2,14.4,4.2,27.7-2.9,36.5c-2.7,3.1-5.7,5.8-9.1,8.1c-3.8,2.8-7.4,5.5-9.3,9.2
	c-5.9,11.4,7.1,24.7,15.7,30.8l1.7,1.2c11.4,8,25.6,18,25.9,33.4c0.2,11.4-7.3,19.9-14.5,28c-6.1,6.9-11.8,13.4-13,21.2
	c-1.6,10.5,5.7,20.6,13.1,26.5c5.4,4.3,11.5,7.6,17.9,11c3.8,2,7.8,4.2,11.5,6.5c3.5,2.2,7,4.7,9.3,8.5c5.2,8.5,2,17.5-1.1,26.3
	c-2.3,6.6-4.5,12.8-3.3,18.4c2.2,10.2,15.7,14.9,26.3,12.7c8.7-1.8,16.4-6.6,24.5-11.7c2.6-1.6,5.3-3.3,8.1-4.9
	c14.9-8.6,28.5-10.7,39.1-6.1c3.4,1.6,6.5,3.5,9.5,5.8c2.3,1.7,4.7,3.3,7.3,4.6c12,5.2,26.1,0.4,32.2-11.2c0.5-1.1,1-2.2,1.5-3.4
	c1.6-3.9,3.3-8.2,7.3-11c4.2-2.9,9.4-2.8,13.2-2.8l39.1,0.3l-0.1,7l-39.1-0.3c-3.7,0-7,0.1-9.2,1.6c-2.3,1.5-3.5,4.6-4.8,7.8
	c-0.5,1.3-1,2.6-1.6,3.8c-7.9,15.1-26.1,21.4-41.6,14.5c-2.9-1.5-5.7-3.3-8.3-5.2c-2.5-2-5.3-3.7-8.2-5.1
	c-10.8-4.7-23.8,0.5-32.9,5.7c-2.6,1.5-5.3,3.2-7.9,4.8c-8.3,5.2-16.9,10.5-26.8,12.6C457.2,788.2,455.9,788.4,454.6,788.5z"/>
<path class="st16" d="M717.8,669.5c0,0,49.1,4.2,56.4,75.8"/>
<path class="st16" d="M640.1,762.2c0,0-23.2-58.2,52.6-98"/>
<path class="st16" d="M658.9,747.5c0,0-10.7-30.2,12.7-49.3"/>
<path class="st16" d="M703.5,695.4c0,0,20.3,14.3,13.9,55"/>
<path class="st16" d="M741.1,654.9c0,0,33.5,15.1,46.3,69.2"/>
<path class="st16" d="M692.3,659.2c0,0,19.4-7.7,33.3,2.1"/>
<path class="st16" d="M678.2,772.9c0,0,18.8,19.4,85.7-7.6"/>
<path class="st16" d="M655.9,667.4c0,0-25.3,20.3-25,58.4"/>
<path class="st16" d="M653.1,761.1c0,0-4.9,12.5,8,22.4"/>
<path class="st16" d="M771.7,773.7c0,0-6.9,24.7-21.1,22.9"/>
<path class="st16" d="M729.7,708.1c0,0,10,11.2,5.3,25.6"/>
<path class="st16" d="M680,713.5c0,0-7.6,16.7-1.4,29.2"/>
<path class="st16" d="M691,712.5c0,0,8.6,18.3,2.6,28.9"/>
</svg>
