<?xml version="1.0" encoding="utf-8"?>
<!-- Generator: Adobe Illustrator 22.0.0, SVG Export Plug-In . SVG Version: 6.00 Build 0)  -->
<svg version="1.1" id="a335945a-1107-4320-8aa0-2afe397d1c78"
	 xmlns="http://www.w3.org/2000/svg" xmlns:xlink="http://www.w3.org/1999/xlink" x="0px" y="0px" viewBox="0 0 802.2 825.6"
	 style="enable-background:new 0 0 802.2 825.6;" xml:space="preserve">
<style type="text/css">
	.st0{fill:#8025FE;}
	.st1{fill:#3F3D56;}
	.st2{fill:#68CBFF;}
	.st3{fill:#D0CDE1;}
	.st4{fill:#3F3D56;stroke:#000000;stroke-width:2;stroke-miterlimit:10;}
</style>
<title>Playful cat</title>
<g>
	<title>online_transactions</title>
	<rect x="227.6" y="591.4" class="st0" width="343.7" height="234.2"/>
	<path class="st1" d="M590.5,564H252.2c-2.3,0-4.1,1.8-4.1,4.1v228.7c0,2.3,1.8,4.1,4.1,4.1l0,0h338.2c2.3,0,4.1-1.8,4.1-4.1l0,0
		V568.1C594.6,565.8,592.8,564,590.5,564z M591.9,796.8c0,0.8-0.6,1.4-1.4,1.4l0,0H252.2c-0.8,0-1.4-0.6-1.4-1.4l0,0V568.1
		c0-0.8,0.6-1.4,1.4-1.4h338.2c0.8,0,1.4,0.6,1.4,1.4L591.9,796.8L591.9,796.8z"/>
	<path class="st1" d="M267.9,725.6h150.7c1.1,0,2,0.9,2,2v13.8c0,1.1-0.9,2-2,2H267.9c-1.1,0-2-0.9-2-2v-13.8
		C265.9,726.5,266.8,725.6,267.9,725.6z"/>
	<path class="st1" d="M561.7,710.5h-49.3c-2.3,0-4.1,1.8-4.1,4.1l0,0V753c0,2.3,1.8,4.1,4.1,4.1l0,0h49.3c2.3,0,4.1-1.8,4.1-4.1l0,0
		v-38.3C565.8,712.4,564,710.5,561.7,710.5L561.7,710.5z M563.1,753c0,0.8-0.6,1.4-1.4,1.4h-49.3c-0.8,0-1.4-0.6-1.4-1.4v-38.3
		c0-0.8,0.6-1.4,1.4-1.4l0,0h49.3c0.8,0,1.4,0.6,1.4,1.4l0,0V753z"/>
	<path class="st1" d="M522.3,719.4h29.6c1.1,0,2,0.9,2,2v3c0,1.1-0.9,2-2,2h-29.6c-1.1,0-2-0.9-2-2v-3
		C520.3,720.3,521.2,719.4,522.3,719.4z"/>
	<path class="st1" d="M522.3,730.3h29.6c1.1,0,2,0.9,2,2v3c0,1.1-0.9,2-2,2h-29.6c-1.1,0-2-0.9-2-2v-3
		C520.3,731.2,521.2,730.3,522.3,730.3z"/>
	<path class="st1" d="M522.3,741.3h29.6c1.1,0,2,0.9,2,2v3c0,1.1-0.9,2-2,2h-29.6c-1.1,0-2-0.9-2-2v-3
		C520.3,742.2,521.2,741.3,522.3,741.3z"/>
	<path class="st1" d="M272,580.4h67.2c1.1,0,2,0.9,2,2v26.1c0,1.1-0.9,2-2,2H272c-1.1,0-2-0.9-2-2v-26.1
		C270,581.3,270.9,580.4,272,580.4z"/>
	<path class="st2" d="M311.1,595.5c0,5.3-2.5,9.6-5.5,9.6s-5.5-4.3-5.5-9.6c0-5.3,5.5-9.6,5.5-9.6S311.1,590.2,311.1,595.5z"/>
	<polygon class="st1" points="674.9,160.9 672.9,160.9 672.9,384.6 445.9,384.6 445.9,386.6 674.9,386.6 	"/>
	<polygon class="st1" points="306,373.7 77,373.7 77,148 79,148 79,371.7 306,371.7 	"/>
	<path class="st1" d="M800.3,36.9H799v-2.2h1c0.4,0,0.6-0.3,0.6-0.6V22.5c0-0.4-0.3-0.6-0.6-0.6l0,0h-1v-6.6c0-7.7-6.2-14-14-14l0,0
		h-1.4v-1.6c0-0.4-0.3-0.6-0.6-0.6l0,0h-11.5c-0.4,0-0.6,0.3-0.6,0.6l0,0v1.6H562.4c-7.7,0-14,6.2-14,14l0,0v297c0,7.7,6.2,14,14,14
		l0,0h222.7c7.7,0,14-6.2,14-14l0,0V49.7h1.3c0.4,0,0.6-0.3,0.6-0.6V37.6C800.9,37.2,800.6,36.9,800.3,36.9L800.3,36.9z"/>
	<path class="st3" d="M561.8,10.5h225.6c1.1,0,1.9,0.9,1.9,1.9V313c0,1.1-0.9,1.9-1.9,1.9H561.8c-1.1,0-1.9-0.9-1.9-1.9V12.4
		C559.9,11.3,560.8,10.5,561.8,10.5z"/>
	<path class="st1" d="M650.3,159.7h35.4c1.1,0,2,0.9,2,2v7.7c0,1.1-0.9,2-2,2h-35.4c-1.1,0-2-0.9-2-2v-7.7
		C648.3,160.6,649.2,159.7,650.3,159.7z"/>
	<path class="st1" d="M602.7,68.9h130.5c1.1,0,2,0.9,2,2v1c0,1.1-0.9,2-2,2H602.7c-1.1,0-2-0.9-2-2v-1
		C600.7,69.7,601.6,68.9,602.7,68.9z"/>
	<path class="st1" d="M602.7,84.7h130.5c1.1,0,2,0.9,2,2v1c0,1.1-0.9,2-2,2H602.7c-1.1,0-2-0.9-2-2v-1
		C600.7,85.6,601.6,84.7,602.7,84.7z"/>
	<path class="st1" d="M602.7,100.5h130.5c1.1,0,2,0.9,2,2v1c0,1.1-0.9,2-2,2H602.7c-1.1,0-2-0.9-2-2v-1
		C600.7,101.4,601.6,100.5,602.7,100.5z"/>
	<path class="st1" d="M602.7,116.3h130.5c1.1,0,2,0.9,2,2v1c0,1.1-0.9,2-2,2H602.7c-1.1,0-2-0.9-2-2v-1
		C600.7,117.2,601.6,116.3,602.7,116.3z"/>
	<path class="st1" d="M602.7,132.2h130.5c1.1,0,2,0.9,2,2v1c0,1.1-0.9,2-2,2H602.7c-1.1,0-2-0.9-2-2v-1
		C600.7,133.1,601.6,132.2,602.7,132.2z"/>
	<circle class="st2" cx="663.2" cy="261" r="41.8"/>
	<path class="st1" d="M675.5,293.3c-28.9,0-52.4-23.5-52.4-52.4s23.5-52.4,52.4-52.4s52.4,23.5,52.4,52.4l0,0
		C727.9,269.8,704.4,293.3,675.5,293.3z M675.5,190.4c-27.9,0-50.5,22.6-50.5,50.5c0,27.9,22.6,50.5,50.5,50.5s50.5-22.6,50.5-50.5
		l0,0C726,213.1,703.4,190.4,675.5,190.4z"/>
	<path class="st1" d="M155.5,74.1h-1.7V27.2c0-15-12.2-27.2-27.2-27.2l0,0H27.2C12.2,0,0,12.2,0,27.2l0,0v257.5
		c0,15,12.2,27.2,27.2,27.2l0,0h99.4c15,0,27.2-12.2,27.2-27.2l0,0V107.5h1.7V74.1z"/>
	<path class="st3" d="M148,28.8v257.1c0,11.2-9.1,20.3-20.3,20.3H27.8c-11.2,0-20.3-9.1-20.3-20.3V28.8c0-11.2,9.1-20.3,20.3-20.3
		h12.1c-2,4.9,0.4,10.6,5.3,12.6c1.2,0.5,2.4,0.7,3.6,0.7h57c5.3,0,9.6-4.3,9.6-9.6c0-1.2-0.2-2.5-0.7-3.6h13
		C138.9,8.5,148,17.6,148,28.8z"/>
	<path class="st1" d="M66.4,160h22.8c1.1,0,2,0.9,2,2v3.9c0,1.1-0.9,2-2,2H66.4c-1.1,0-2-0.9-2-2V162C64.4,160.9,65.3,160,66.4,160z
		"/>
	<path class="st1" d="M33.7,98.2h88.1c0.9,0,1.7,0.8,1.7,1.7l0,0c0,0.9-0.8,1.7-1.7,1.7H33.7c-0.9,0-1.7-0.8-1.7-1.7l0,0
		C32,99,32.8,98.2,33.7,98.2z"/>
	<path class="st1" d="M33.7,109h88.1c0.9,0,1.7,0.8,1.7,1.7l0,0c0,0.9-0.8,1.7-1.7,1.7H33.7c-0.9,0-1.7-0.8-1.7-1.7l0,0
		C32,109.7,32.8,109,33.7,109z"/>
	<path class="st1" d="M33.7,119.7h88.1c0.9,0,1.7,0.8,1.7,1.7l0,0c0,0.9-0.8,1.7-1.7,1.7H33.7c-0.9,0-1.7-0.8-1.7-1.7l0,0
		C32,120.5,32.8,119.7,33.7,119.7z"/>
	<path class="st1" d="M33.7,130.5h88.1c0.9,0,1.7,0.8,1.7,1.7l0,0c0,0.9-0.8,1.7-1.7,1.7H33.7c-0.9,0-1.7-0.8-1.7-1.7l0,0
		C32,131.3,32.8,130.5,33.7,130.5z"/>
	<path class="st1" d="M33.7,141.3h88.1c0.9,0,1.7,0.8,1.7,1.7l0,0c0,0.9-0.8,1.7-1.7,1.7H33.7c-0.9,0-1.7-0.8-1.7-1.7l0,0
		C32,142,32.8,141.3,33.7,141.3z"/>
	<circle class="st2" cx="69.9" cy="242.6" r="28.8"/>
	<path class="st1" d="M78.4,264.8c-20,0-36.1-16.2-36.1-36.1c0-20,16.2-36.1,36.1-36.1s36.1,16.2,36.1,36.1l0,0
		C114.5,248.6,98.3,264.8,78.4,264.8z M78.4,193.8c-19.2,0-34.8,15.6-34.8,34.8s15.6,34.8,34.8,34.8s34.8-15.6,34.8-34.8
		S97.6,193.9,78.4,193.8z"/>
	<rect x="90.1" y="533.5" class="st3" width="28" height="28"/>
	<path class="st1" d="M135.1,545.5h-34v-34h34V545.5z M102.6,544h31v-31h-31V544z"/>
	<rect x="652.1" y="531.5" class="st3" width="28" height="28"/>
	<path class="st1" d="M697.1,543.5h-34v-34h34V543.5z M664.6,542h31v-31h-31V542z"/>
	<line class="st4" x1="306" y1="373.7" x2="306" y2="536.5"/>
	<line class="st4" x1="445.9" y1="384.6" x2="445.9" y2="536.5"/>
	<rect x="341.2" y="178" class="st3" width="28" height="28"/>
	<path class="st1" d="M386.2,190h-34v-34h34V190z M353.7,188.5h31v-31h-31V188.5z"/>
</g>
</svg>
