<?xml version="1.0" encoding="utf-8"?>
<!-- Generator: Adobe Illustrator 22.0.0, SVG Export Plug-In . SVG Version: 6.00 Build 0)  -->
<svg version="1.1" id="a335945a-1107-4320-8aa0-2afe397d1c78"
	 xmlns="http://www.w3.org/2000/svg" xmlns:xlink="http://www.w3.org/1999/xlink" x="0px" y="0px" viewBox="0 0 802.2 825.6"
	 style="enable-background:new 0 0 802.2 825.6;" xml:space="preserve">
<style type="text/css">
	.st0{fill:#3F3D56;}
	.st1{fill:#1E91C4;}
	.st2{fill:#8025FE;}
	.st3{fill:#FFFFFF;}
	.st4{fill:#E6E6E6;}
</style>
<title>Playful cat</title>
<g>
	<path class="st0" d="M762,361.5H453.8c-8.6,0-15.5-11.3-15.5-25.3V54.5c0-14,7-25.3,15.5-25.3H762c8.6,0,15.5,11.3,15.5,25.3v281.7
		C777.5,350.2,770.6,361.5,762,361.5z M453.8,32.2c-7.6,0-13.7,10-13.7,22.4v281.7c0,12.4,6.1,22.4,13.7,22.4H762
		c7.6,0,13.7-10,13.7-22.4V54.5c0-12.4-6.1-22.4-13.7-22.4H453.8z"/>
	<path class="st0" d="M683.9,141.4h-59.4c-2.3,0-4.1,3-4.1,6.7s1.8,6.7,4.1,6.7h59.4c2.3,0,4.1-3,4.1-6.7S686.2,141.4,683.9,141.4
		L683.9,141.4z"/>
	<path class="st0" d="M741.8,183.9H623.6c-1.8,0-3.3,3-3.3,6.7s1.5,6.7,3.3,6.7h118.2c1.8,0,3.3-3,3.3-6.7S743.7,183.9,741.8,183.9z
		"/>
	<path class="st0" d="M741.8,227.4H623.6c-1.8,0-3.3,3-3.3,6.7s1.5,6.7,3.3,6.7h118.2c1.8,0,3.3-3,3.3-6.7S743.7,227.4,741.8,227.4z
		"/>
	<path class="st1" d="M577.6,263.3H475.2c-5.3,0-9.6-4.7-9.6-10.4v-124c0-5.8,4.3-10.4,9.6-10.4h102.4c5.3,0,9.6,4.7,9.6,10.4v124
		C587.2,258.6,582.9,263.3,577.6,263.3z"/>
	<ellipse class="st2" cx="761" cy="45" rx="41.2" ry="43.7"/>
	<path class="st3" d="M758.7,62.7c-1.1,0-2.2-0.4-3.1-1.1l0,0L743.8,52c-2.3-1.8-2.7-5.3-1-7.8c1.7-2.4,5-2.9,7.3-1.1l0,0l7.6,6.2
		l18-24.9c1.7-2.4,5-2.9,7.3-1l0,0l-0.1,0.1l0.1-0.1c2.3,1.8,2.7,5.3,0.9,7.8l-21.2,29.3C761.8,61.8,760.3,62.7,758.7,62.7z"/>
	<path class="st3" d="M529.8,238.7c-2.3-0.1-5.2-0.2-7.4-1.9c-1.4-1.1-2.2-2.8-2.2-4.6c-0.1-1.3,0.4-2.6,1.3-3.4
		c1.4-1.1,3.1-1.4,4.7-0.7l-1.9-14.9l1.4-0.2l2.2,17.6l-1.2-0.6c-1.4-0.7-3.2-1-4.3,0c-0.5,0.6-0.8,1.4-0.8,2.2
		c0.1,1.4,0.6,2.6,1.6,3.5c1.7,1.4,4,1.6,6.6,1.6L529.8,238.7z"/>
	<rect x="509.9" y="214.4" class="st3" width="7.5" height="1.5"/>
	<rect x="533.7" y="214.4" class="st3" width="7.5" height="1.5"/>
	<path class="st3" d="M496.9,193.4c-6-0.8-10.7-7-11.2-13.4c-0.6-7.6,3.5-14.8,9.1-19c5.9-4.5,13.2-6.3,20.2-6.7
		c13.7-0.7,27.3,4.1,38,13.6c5.3,4.8,10.2,10.8,12.1,18.2c1.6,6.3,0.3,13.6-4.4,18.1c-2.4,2.2-5.5,3.3-8.6,2.9
		c-3.7-0.4-7-2.5-10-4.8c-5.7-4.5-10.3-10.7-17.3-13.1c-5.1-1.7-11.7-0.2-14.7,4.8c-0.7,1.1-1.2,2.5-1.4,3.8
		c-0.1,0.6,0.2,1.2,0.7,1.4s1.1-0.2,1.3-0.8c0.8-6.3,8-8.6,12.9-7.1c7.3,2.1,12.2,9.1,18.1,13.6c3.1,2.5,6.8,4.1,10.5,4.6
		c3.3,0.3,6.6-0.8,9.2-3.1c5.1-4.4,7-11.9,5.9-18.7c-1.3-7.8-6.1-14.6-11.5-19.7c-10.8-10.4-24.9-16.1-39.3-15.8
		c-7.4,0.2-15.1,1.9-21.4,6.1c-6.1,4.1-10.9,11-11.5,18.9c-0.5,7,2.9,14.4,8.9,17.5c1.4,0.7,2.9,1.2,4.5,1.4
		C498.2,195.9,498.2,193.6,496.9,193.4L496.9,193.4z"/>
	<g>
		<path class="st0" d="M762.1,825.3H453.9c-8.6,0-15.5-11.3-15.5-25.3V518.3c0-14,7-25.3,15.5-25.3h308.2c8.6,0,15.5,11.3,15.5,25.3
			v281.7C777.6,813.9,770.7,825.3,762.1,825.3z M453.9,495.9c-7.6,0-13.7,10-13.7,22.4v281.7c0,12.4,6.1,22.4,13.7,22.4h308.2
			c7.6,0,13.7-10,13.7-22.4V518.3c0-12.4-6.1-22.4-13.7-22.4H453.9z"/>
		<path class="st0" d="M684,605.2h-59.4c-2.3,0-4.1,3-4.1,6.7s1.8,6.7,4.1,6.7H684c2.3,0,4.1-3,4.1-6.7S686.2,605.2,684,605.2
			L684,605.2z"/>
		<path class="st0" d="M741.9,647.6H623.7c-1.8,0-3.3,3-3.3,6.7c0,3.7,1.5,6.7,3.3,6.7h118.2c1.8,0,3.3-3,3.3-6.7
			C745.2,650.6,743.8,647.6,741.9,647.6z"/>
		<path class="st0" d="M741.9,691.1H623.7c-1.8,0-3.3,3-3.3,6.7s1.5,6.7,3.3,6.7h118.2c1.8,0,3.3-3,3.3-6.7S743.8,691.1,741.9,691.1
			z"/>
		<path class="st1" d="M577.7,727.1H475.3c-5.3,0-9.6-4.7-9.6-10.4v-124c0-5.8,4.3-10.4,9.6-10.4h102.4c5.3,0,9.6,4.7,9.6,10.4v124
			C587.3,722.4,583,727.1,577.7,727.1z"/>
		<ellipse class="st2" cx="761.1" cy="508.7" rx="41.2" ry="43.7"/>
		<path class="st3" d="M758.8,526.5c-1.1,0-2.2-0.4-3.1-1.1l0,0l-11.8-9.6c-2.3-1.8-2.7-5.3-1-7.8s5-2.9,7.3-1.1l0,0l7.6,6.2
			l18-24.9c1.7-2.4,5-2.9,7.3-1l0,0l-0.1,0.1l0.1-0.1c2.3,1.8,2.7,5.3,0.9,7.8l-21.2,29.3C761.9,525.6,760.4,526.5,758.8,526.5z"/>
		<path class="st3" d="M529.9,702.4c-2.3-0.1-5.2-0.2-7.4-1.9c-1.4-1.1-2.2-2.8-2.2-4.6c-0.1-1.3,0.4-2.6,1.3-3.4
			c1.4-1.1,3.1-1.4,4.7-0.7l-1.9-14.9l1.4-0.2l2.2,17.6l-1.2-0.6c-1.4-0.7-3.2-1-4.3,0c-0.5,0.6-0.8,1.4-0.8,2.2
			c0.1,1.4,0.6,2.6,1.6,3.5c1.7,1.4,4,1.6,6.6,1.6L529.9,702.4z"/>
		<rect x="510" y="678.1" class="st3" width="7.5" height="1.5"/>
		<rect x="533.7" y="678.1" class="st3" width="7.5" height="1.5"/>
		<path class="st3" d="M497,657.2c-6-0.8-10.7-7-11.2-13.4c-0.6-7.6,3.5-14.8,9.1-19c5.9-4.5,13.2-6.3,20.2-6.7
			c13.7-0.7,27.3,4.1,38,13.6c5.3,4.8,10.2,10.8,12.1,18.2c1.6,6.3,0.3,13.6-4.4,18.1c-2.4,2.2-5.5,3.3-8.6,2.9
			c-3.7-0.4-7-2.5-10-4.8c-5.7-4.5-10.3-10.7-17.3-13.1c-5.1-1.7-11.7-0.2-14.7,4.8c-0.7,1.1-1.2,2.5-1.4,3.8
			c-0.1,0.6,0.2,1.2,0.7,1.4c0.5,0.2,1.1-0.2,1.3-0.8c0.8-6.3,8-8.6,12.9-7.1c7.3,2.1,12.2,9.1,18.1,13.6c3.1,2.5,6.8,4.1,10.5,4.6
			c3.3,0.3,6.6-0.8,9.2-3.1c5.1-4.4,7-11.9,5.9-18.7c-1.3-7.8-6.1-14.6-11.5-19.7c-10.8-10.4-24.9-16.1-39.3-15.8
			c-7.4,0.2-15.1,1.9-21.4,6.1c-6.1,4.1-10.9,11-11.5,18.9c-0.5,7,2.9,14.4,8.9,17.5c1.4,0.7,2.9,1.2,4.5,1.4
			C498.3,659.7,498.3,657.4,497,657.2L497,657.2z"/>
	</g>
	<g>
		<path class="st0" d="M325.9,826.5H17.7c-8.6,0-15.5-11.3-15.5-25.3V519.5c0-14,7-25.3,15.5-25.3h308.2c8.6,0,15.5,11.3,15.5,25.3
			v281.7C341.5,815.2,334.5,826.5,325.9,826.5z M17.7,497.2c-7.6,0-13.7,10-13.7,22.4v281.7c0,12.4,6.1,22.4,13.7,22.4h308.2
			c7.6,0,13.7-10,13.7-22.4V519.5c0-12.4-6.1-22.4-13.7-22.4H17.7z"/>
		<path class="st0" d="M247.8,606.4h-59.4c-2.3,0-4.1,3-4.1,6.7c0,3.7,1.8,6.7,4.1,6.7h59.4c2.3,0,4.1-3,4.1-6.7
			C251.9,609.4,250.1,606.4,247.8,606.4L247.8,606.4z"/>
		<path class="st0" d="M305.8,648.9H187.6c-1.8,0-3.3,3-3.3,6.7s1.5,6.7,3.3,6.7h118.2c1.8,0,3.3-3,3.3-6.7S307.6,648.9,305.8,648.9
			z"/>
		<path class="st0" d="M305.8,692.4H187.6c-1.8,0-3.3,3-3.3,6.7c0,3.7,1.5,6.7,3.3,6.7h118.2c1.8,0,3.3-3,3.3-6.7
			C309.1,695.4,307.6,692.4,305.8,692.4z"/>
		<path class="st1" d="M141.6,728.3H39.2c-5.3,0-9.6-4.7-9.6-10.4v-124c0-5.8,4.3-10.4,9.6-10.4h102.4c5.3,0,9.6,4.7,9.6,10.4v124
			C151.2,723.6,146.9,728.3,141.6,728.3z"/>
		<ellipse class="st2" cx="325" cy="510" rx="41.2" ry="43.7"/>
		<path class="st3" d="M322.7,527.7c-1.1,0-2.2-0.4-3.1-1.1l0,0l-11.8-9.6c-2.3-1.8-2.7-5.3-1-7.8c1.7-2.4,5-2.9,7.3-1.1l0,0
			l7.6,6.2l18-24.9c1.7-2.4,5-2.9,7.3-1l0,0l-0.1,0.1l0.1-0.1c2.3,1.8,2.7,5.3,0.9,7.8l-21.2,29.3
			C325.8,526.8,324.3,527.7,322.7,527.7z"/>
		<path class="st3" d="M93.8,703.7c-2.3-0.1-5.2-0.2-7.4-1.9c-1.4-1.1-2.2-2.8-2.2-4.6c-0.1-1.3,0.4-2.6,1.3-3.4
			c1.4-1.1,3.1-1.4,4.7-0.7l-1.9-14.9l1.4-0.2l2.2,17.6l-1.2-0.6c-1.4-0.7-3.2-1-4.3,0c-0.5,0.6-0.8,1.4-0.8,2.2
			c0.1,1.4,0.6,2.6,1.6,3.5c1.7,1.4,4,1.6,6.6,1.6L93.8,703.7z"/>
		<rect x="73.8" y="679.4" class="st3" width="7.5" height="1.5"/>
		<rect x="97.6" y="679.4" class="st3" width="7.5" height="1.5"/>
		<path class="st3" d="M60.9,658.4c-6-0.8-10.7-7-11.2-13.4c-0.6-7.6,3.5-14.8,9.1-19c5.9-4.5,13.2-6.3,20.2-6.7
			c13.7-0.7,27.3,4.1,38,13.6c5.3,4.8,10.2,10.8,12.1,18.2c1.6,6.3,0.3,13.6-4.4,18.1c-2.4,2.2-5.5,3.3-8.6,2.9
			c-3.7-0.4-7-2.5-10-4.8c-5.7-4.5-10.3-10.7-17.3-13.1c-5.1-1.7-11.7-0.2-14.7,4.8c-0.7,1.1-1.2,2.5-1.4,3.8
			c-0.1,0.6,0.2,1.2,0.7,1.4s1.1-0.2,1.3-0.8c0.8-6.3,8-8.6,12.9-7.1c7.3,2.1,12.2,9.1,18.1,13.6c3.1,2.5,6.8,4.1,10.5,4.6
			c3.3,0.3,6.6-0.8,9.2-3.1c5.1-4.4,7-11.9,5.9-18.7c-1.3-7.8-6.1-14.6-11.5-19.7C109,622.3,94.9,616.7,80.4,617
			c-7.4,0.2-15.1,1.9-21.4,6.1c-6.1,4.1-10.9,11-11.5,18.9c-0.5,7,2.9,14.4,8.9,17.5c1.4,0.7,2.9,1.2,4.5,1.4
			C62.1,660.9,62.1,658.6,60.9,658.4L60.9,658.4z"/>
	</g>
	<g>
		<path class="st0" d="M326,360.7H17.8c-8.6,0-15.5-11.3-15.5-25.3V53.8c0-14,7-25.3,15.5-25.3H326c8.6,0,15.5,11.3,15.5,25.3v281.7
			C341.6,349.4,334.6,360.7,326,360.7z M17.8,31.4c-7.6,0-13.7,10-13.7,22.4v281.7c0,12.4,6.1,22.4,13.7,22.4H326
			c7.6,0,13.7-10,13.7-22.4V53.8c0-12.4-6.1-22.4-13.7-22.4H17.8z"/>
		<path class="st0" d="M247.9,140.6h-59.4c-2.3,0-4.1,3-4.1,6.7s1.8,6.7,4.1,6.7h59.4c2.3,0,4.1-3,4.1-6.7S250.2,140.6,247.9,140.6
			L247.9,140.6z"/>
		<path class="st0" d="M305.9,183.1H187.7c-1.8,0-3.3,3-3.3,6.7s1.5,6.7,3.3,6.7h118.2c1.8,0,3.3-3,3.3-6.7S307.7,183.1,305.9,183.1
			z"/>
		<path class="st0" d="M305.9,226.6H187.7c-1.8,0-3.3,3-3.3,6.7s1.5,6.7,3.3,6.7h118.2c1.8,0,3.3-3,3.3-6.7S307.7,226.6,305.9,226.6
			z"/>
		<path class="st4" d="M141.7,262.5H39.3c-5.3,0-9.6-4.7-9.6-10.4v-124c0-5.8,4.3-10.4,9.6-10.4h102.4c5.3,0,9.6,4.7,9.6,10.4v124
			C151.3,257.9,147,262.5,141.7,262.5z"/>
		<ellipse class="st4" cx="325.1" cy="44.2" rx="41.2" ry="43.7"/>
		<path class="st3" d="M322.8,61.9c-1.1,0-2.2-0.4-3.1-1.1l0,0l-11.8-9.6c-2.3-1.8-2.7-5.3-1-7.8c1.7-2.4,5-2.9,7.3-1.1l0,0l7.6,6.2
			l18-24.9c1.7-2.4,5-2.9,7.3-1l0,0l-0.1,0.1l0.1-0.1c2.3,1.8,2.7,5.3,0.9,7.8l-21.2,29.3C325.9,61.1,324.4,61.9,322.8,61.9z"/>
		<path class="st0" d="M93.9,237.9c-2.3-0.1-5.2-0.2-7.4-1.9c-1.4-1.1-2.2-2.8-2.2-4.6c-0.1-1.3,0.4-2.6,1.3-3.4
			c1.4-1.1,3.1-1.4,4.7-0.7l-1.9-14.9l1.4-0.2l2.2,17.6l-1.2-0.6c-1.4-0.7-3.2-1-4.3,0c-0.5,0.6-0.8,1.4-0.8,2.2
			c0.1,1.4,0.6,2.6,1.6,3.5c1.7,1.4,4,1.6,6.6,1.6L93.9,237.9z"/>
		<rect x="73.9" y="213.6" class="st0" width="7.5" height="1.5"/>
		<rect x="97.7" y="213.6" class="st0" width="7.5" height="1.5"/>
		<path class="st0" d="M60.9,192.7c-6-0.8-10.7-7-11.2-13.4c-0.6-7.6,3.5-14.8,9.1-19c5.9-4.5,13.2-6.3,20.2-6.7
			c13.7-0.7,27.3,4.1,38,13.6c5.3,4.8,10.2,10.8,12.1,18.2c1.6,6.3,0.3,13.6-4.4,18.1c-2.4,2.2-5.5,3.3-8.6,2.9
			c-3.7-0.4-7-2.5-10-4.8c-5.7-4.5-10.3-10.7-17.3-13.1c-5.1-1.7-11.7-0.2-14.7,4.8c-0.7,1.1-1.2,2.5-1.4,3.8
			c-0.1,0.6,0.2,1.2,0.7,1.4s1.1-0.2,1.3-0.8c0.8-6.3,8-8.6,12.9-7.1c7.3,2.1,12.2,9.1,18.1,13.6c3.1,2.5,6.8,4.1,10.5,4.6
			c3.3,0.3,6.6-0.8,9.2-3.1c5.1-4.4,7-11.9,5.9-18.7c-1.3-7.8-6.1-14.6-11.5-19.7C109,156.6,95,150.9,80.5,151.2
			c-7.4,0.2-15.1,1.9-21.4,6.1c-6.1,4.1-10.9,11-11.5,18.9c-0.5,7,2.9,14.4,8.9,17.5c1.4,0.7,2.9,1.2,4.5,1.4
			C62.2,195.2,62.2,192.9,60.9,192.7L60.9,192.7z"/>
	</g>
</g>
</svg>
